<svg xmlns="http://www.w3.org/2000/svg" xmlns:xlink="http://www.w3.org/1999/xlink" width="2000" zoomAndPan="magnify" viewBox="0 0 1500 1499.999933" height="2000" preserveAspectRatio="xMidYMid meet" version="1.0"><defs><g/><clipPath id="1f02972324"><path d="M 486.28125 450.390625 L 1013.527344 450.390625 L 1013.527344 911.640625 L 486.28125 911.640625 Z M 486.28125 450.390625 " clip-rule="nonzero"/></clipPath><clipPath id="121fbe5dce"><path d="M 749.785156 450.097656 L 486.046875 911.640625 L 1013.527344 911.640625 Z M 749.785156 450.097656 " clip-rule="nonzero"/></clipPath><clipPath id="878f1a8e10"><path d="M 486.472656 219.320312 L 1013.71875 219.320312 L 1013.71875 680.570312 L 486.472656 680.570312 Z M 486.472656 219.320312 " clip-rule="nonzero"/></clipPath><clipPath id="f4aa2e7b2f"><path d="M 750.210938 680.863281 L 1013.949219 219.320312 L 486.472656 219.320312 Z M 750.210938 680.863281 " clip-rule="nonzero"/></clipPath><clipPath id="cf7886f7ea"><path d="M 729 1092 L 772 1092 L 772 1136 L 729 1136 Z M 729 1092 " clip-rule="nonzero"/></clipPath><clipPath id="57d73b81f3"><path d="M 750.421875 1092.648438 L 772.167969 1114.390625 L 750.421875 1136.132812 L 728.679688 1114.390625 Z M 750.421875 1092.648438 " clip-rule="nonzero"/></clipPath><clipPath id="5aec254b73"><path d="M 750.421875 1092.648438 L 772.167969 1114.390625 L 750.421875 1136.132812 L 728.679688 1114.390625 Z M 750.421875 1092.648438 " clip-rule="nonzero"/></clipPath><clipPath id="63e985a430"><path d="M 728 1092 L 773 1092 L 773 1136 L 728 1136 Z M 728 1092 " clip-rule="nonzero"/></clipPath><clipPath id="037fdfb802"><path d="M 750.421875 1092.648438 L 772.167969 1114.390625 L 750.421875 1136.132812 L 728.679688 1114.390625 Z M 750.421875 1092.648438 " clip-rule="nonzero"/></clipPath><clipPath id="6c54d80315"><path d="M 750.421875 1092.648438 L 772.167969 1114.390625 L 750.421875 1136.132812 L 728.679688 1114.390625 Z M 750.421875 1092.648438 " clip-rule="nonzero"/></clipPath><clipPath id="a59b241794"><rect x="0" width="693" y="0" height="184"/></clipPath></defs><g clip-path="url(#1f02972324)"><g clip-path="url(#121fbe5dce)"><path stroke-linecap="butt" transform="matrix(-0.75, 0, 0, -0.75, 1013.52933, 911.639421)" fill="none" stroke-linejoin="miter" d="M 351.65372 615.389073 L 703.310001 -0.0016047 L 0.0026484 -0.0016047 Z M 351.65372 615.389073 " stroke="#ffffff" stroke-width="50" stroke-opacity="1" stroke-miterlimit="4"/></g></g><g clip-path="url(#878f1a8e10)"><g clip-path="url(#f4aa2e7b2f)"><path stroke-linecap="butt" transform="matrix(0.75, 0, 0, 0.75, 486.469287, 219.321523)" fill="none" stroke-linejoin="miter" d="M 351.655564 615.389064 L 703.306636 -0.00161361 L 0.00449174 -0.00161361 Z M 351.655564 615.389064 " stroke="#ffffff" stroke-width="50" stroke-opacity="1" stroke-miterlimit="4"/></g></g><g clip-path="url(#cf7886f7ea)"><g clip-path="url(#57d73b81f3)"><g clip-path="url(#5aec254b73)"><path fill="#ffffff" d="M 750.421875 1092.9375 L 771.820312 1114.332031 L 750.421875 1135.730469 L 729.027344 1114.332031 Z M 750.421875 1092.9375 " fill-opacity="1" fill-rule="nonzero"/></g></g></g><g clip-path="url(#63e985a430)"><g clip-path="url(#037fdfb802)"><g clip-path="url(#6c54d80315)"><path fill="#ffffff" d="M 750.277344 1135.875 L 728.882812 1114.476562 C 728.800781 1114.394531 728.800781 1114.269531 728.882812 1114.1875 L 750.277344 1092.792969 C 750.359375 1092.710938 750.484375 1092.710938 750.566406 1092.792969 L 771.964844 1114.1875 C 772.042969 1114.269531 772.042969 1114.394531 771.964844 1114.476562 L 750.566406 1135.875 C 750.484375 1135.953125 750.359375 1135.953125 750.277344 1135.875 Z M 729.316406 1114.332031 L 750.421875 1135.441406 L 771.53125 1114.332031 L 750.421875 1093.226562 Z M 729.316406 1114.332031 " fill-opacity="1" fill-rule="nonzero"/></g></g></g><path stroke-linecap="butt" transform="matrix(0.75, 0, 0, 0.75, 817.312931, 1108.334405)" fill="none" stroke-linejoin="miter" d="M -0.000574603 2.002044 L 415.197378 2.002044 " stroke="#ffffff" stroke-width="4" stroke-opacity="1" stroke-miterlimit="4"/><g transform="matrix(1, 0, 0, 1, 416, 925)"><g clip-path="url(#a59b241794)"><g fill="#ffffff" fill-opacity="1"><g transform="translate(0.722764, 132.755729)"><g><path d="M 80.328125 -83.328125 C 80.328125 -85.503906 79.550781 -87.390625 78 -88.984375 C 76.457031 -90.578125 74.640625 -91.414062 72.546875 -91.5 L 46.640625 -91.5 L 46.640625 -9.8125 C 46.734375 -7.445312 47.617188 -5.445312 49.296875 -3.8125 C 50.984375 -2.175781 53.007812 -1.359375 55.375 -1.359375 L 57.140625 -1.359375 L 57.140625 0 L 27.28125 0 L 27.28125 -1.359375 L 29.046875 -1.359375 C 31.410156 -1.359375 33.429688 -2.175781 35.109375 -3.8125 C 36.796875 -5.445312 37.6875 -7.40625 37.78125 -9.6875 L 37.78125 -91.5 L 11.859375 -91.5 C 9.679688 -91.414062 7.84375 -90.578125 6.34375 -88.984375 C 4.84375 -87.390625 4.09375 -85.503906 4.09375 -83.328125 L 4.09375 -81 L 2.734375 -80.875 L 2.734375 -98.046875 C 4.085938 -97.503906 6.445312 -96.957031 9.8125 -96.40625 C 13.175781 -95.863281 16.269531 -95.59375 19.09375 -95.59375 L 65.1875 -95.59375 C 69.644531 -95.59375 73.347656 -95.929688 76.296875 -96.609375 C 79.253906 -97.296875 81.050781 -97.773438 81.6875 -98.046875 L 81.6875 -80.875 L 80.328125 -81 Z M 80.328125 -83.328125 "/></g></g></g><g fill="#ffffff" fill-opacity="1"><g transform="translate(110.223122, 132.755729)"><g><path d="M 9.953125 -1.359375 C 12.316406 -1.359375 14.335938 -2.195312 16.015625 -3.875 C 17.703125 -5.5625 18.59375 -7.585938 18.6875 -9.953125 L 18.6875 -86.328125 C 18.414062 -88.503906 17.457031 -90.34375 15.8125 -91.84375 C 14.175781 -93.34375 12.222656 -94.09375 9.953125 -94.09375 L 8.3125 -94.09375 L 8.1875 -95.46875 L 48.140625 -95.46875 C 50.960938 -95.46875 54.03125 -95.738281 57.34375 -96.28125 C 60.664062 -96.820312 63.007812 -97.367188 64.375 -97.921875 L 64.375 -80.734375 L 63 -80.734375 L 63 -83.1875 C 63 -85.375 62.25 -87.238281 60.75 -88.78125 C 59.25 -90.320312 57.457031 -91.140625 55.375 -91.234375 L 27.546875 -91.234375 L 27.546875 -49.09375 L 50.59375 -49.09375 C 52.414062 -49.1875 53.960938 -49.867188 55.234375 -51.140625 C 56.503906 -52.410156 57.140625 -54 57.140625 -55.90625 L 57.140625 -57.828125 L 58.5 -57.828125 L 58.5 -36.28125 L 57.140625 -36.28125 L 57.140625 -38.328125 C 57.140625 -40.140625 56.523438 -41.679688 55.296875 -42.953125 C 54.066406 -44.234375 52.546875 -44.914062 50.734375 -45 L 27.546875 -45 L 27.546875 -4.234375 L 47.046875 -4.234375 C 53.773438 -4.234375 58.910156 -5.734375 62.453125 -8.734375 C 66.003906 -11.734375 68.960938 -16.1875 71.328125 -22.09375 L 72.6875 -22.09375 L 64.78125 0 L 8.1875 0 L 8.1875 -1.359375 Z M 9.953125 -1.359375 "/></g></g></g><g fill="#ffffff" fill-opacity="1"><g transform="translate(214.132643, 132.755729)"><g><path d="M 122.734375 -1.359375 L 124.921875 -1.359375 L 124.921875 0 L 95.328125 0 L 95.328125 -1.234375 L 97.375 -1.234375 C 98.914062 -1.234375 100.234375 -1.84375 101.328125 -3.0625 C 102.421875 -4.289062 102.875 -5.632812 102.6875 -7.09375 L 96.546875 -75.6875 L 67.921875 -12 C 65.367188 -6.457031 63.820312 -1.820312 63.28125 1.90625 L 61.921875 1.90625 L 27 -73.78125 L 21.140625 -7.09375 C 20.953125 -5.632812 21.40625 -4.289062 22.5 -3.0625 C 23.59375 -1.84375 24.867188 -1.234375 26.328125 -1.234375 L 28.5 -1.234375 L 28.5 0 L 2.046875 0 L 2.046875 -1.359375 L 4.234375 -1.359375 C 6.773438 -1.359375 8.976562 -2.128906 10.84375 -3.671875 C 12.707031 -5.222656 13.820312 -7.316406 14.1875 -9.953125 L 24.40625 -97.375 L 25.78125 -97.375 L 63.828125 -15.140625 L 101.046875 -97.375 L 102.28125 -97.375 L 112.78125 -9.953125 C 113.238281 -6.316406 115.054688 -3.769531 118.234375 -2.3125 C 119.597656 -1.675781 121.097656 -1.359375 122.734375 -1.359375 Z M 122.734375 -1.359375 "/></g></g></g><g fill="#ffffff" fill-opacity="1"><g transform="translate(366.31433, 132.755729)"><g><path d="M 71.875 -69.140625 C 71.875 -65.140625 71.054688 -61.410156 69.421875 -57.953125 C 66.421875 -51.503906 61.144531 -47.003906 53.59375 -44.453125 C 50.957031 -43.546875 48.6875 -43.09375 46.78125 -43.09375 C 41.144531 -43.09375 36.28125 -44.140625 32.1875 -46.234375 L 32.1875 -47.59375 C 38.820312 -46.132812 44.957031 -46.863281 50.59375 -49.78125 C 55.59375 -52.320312 59.003906 -56.503906 60.828125 -62.328125 C 61.367188 -64.140625 61.640625 -65.863281 61.640625 -67.5 C 61.640625 -69.132812 61.640625 -70.132812 61.640625 -70.5 C 61.460938 -76.863281 59.78125 -81.929688 56.59375 -85.703125 C 53.414062 -89.484375 48.960938 -91.375 43.234375 -91.375 L 27.546875 -91.375 L 27.546875 -9.953125 C 27.640625 -7.585938 28.523438 -5.5625 30.203125 -3.875 C 31.890625 -2.195312 33.914062 -1.359375 36.28125 -1.359375 L 38.046875 -1.359375 L 38.046875 0 L 8.1875 0 L 8.1875 -1.359375 L 9.953125 -1.359375 C 12.316406 -1.359375 14.335938 -2.195312 16.015625 -3.875 C 17.703125 -5.5625 18.59375 -7.585938 18.6875 -9.953125 L 18.6875 -86.1875 C 18.414062 -88.457031 17.457031 -90.34375 15.8125 -91.84375 C 14.175781 -93.34375 12.222656 -94.09375 9.953125 -94.09375 L 8.3125 -94.09375 L 8.1875 -95.46875 L 43.78125 -95.46875 C 52.507812 -95.46875 59.375 -93.125 64.375 -88.4375 C 69.375 -83.757812 71.875 -77.328125 71.875 -69.140625 Z M 71.875 -69.140625 "/></g></g></g><g fill="#ffffff" fill-opacity="1"><g transform="translate(470.223837, 132.755729)"><g><path d="M 100.234375 -94.09375 L 98.046875 -94.09375 C 96.140625 -94.09375 94.484375 -93.476562 93.078125 -92.25 C 91.671875 -91.03125 90.921875 -89.507812 90.828125 -87.6875 L 90.828125 -33.6875 C 90.828125 -23.050781 87.460938 -14.457031 80.734375 -7.90625 C 74.003906 -1.363281 65.046875 1.90625 53.859375 1.90625 C 42.679688 1.90625 33.613281 -1.34375 26.65625 -7.84375 C 19.707031 -14.34375 16.234375 -22.910156 16.234375 -33.546875 L 16.234375 -87.28125 C 16.234375 -90.007812 15.050781 -92.007812 12.6875 -93.28125 C 11.59375 -93.820312 10.363281 -94.09375 9 -94.09375 L 6.8125 -94.09375 L 6.8125 -95.46875 L 34.5 -95.46875 L 34.5 -94.09375 L 32.328125 -94.09375 C 30.328125 -94.09375 28.644531 -93.476562 27.28125 -92.25 C 25.914062 -91.03125 25.1875 -89.460938 25.09375 -87.546875 L 25.09375 -35.453125 C 25.09375 -25.546875 27.75 -17.546875 33.0625 -11.453125 C 38.382812 -5.359375 45.5 -2.3125 54.40625 -2.3125 C 63.320312 -2.3125 70.550781 -5.195312 76.09375 -10.96875 C 81.644531 -16.75 84.421875 -24.320312 84.421875 -33.6875 L 84.421875 -87.546875 C 84.328125 -89.460938 83.597656 -91.03125 82.234375 -92.25 C 80.867188 -93.476562 79.1875 -94.09375 77.1875 -94.09375 L 75 -94.09375 L 75 -95.46875 L 100.234375 -95.46875 Z M 100.234375 -94.09375 "/></g></g></g><g fill="#ffffff" fill-opacity="1"><g transform="translate(602.496676, 132.755729)"><g><path d="M 8.3125 -5.59375 C 8.039062 -6.863281 7.90625 -9.316406 7.90625 -12.953125 C 7.90625 -16.585938 8.585938 -20.453125 9.953125 -24.546875 L 11.1875 -24.546875 C 11.09375 -23.546875 11.046875 -22.546875 11.046875 -21.546875 C 11.046875 -16.003906 12.726562 -11.390625 16.09375 -7.703125 C 19.457031 -4.023438 23.910156 -2.1875 29.453125 -2.1875 C 35.179688 -2.1875 39.882812 -3.910156 43.5625 -7.359375 C 47.25 -10.816406 49.09375 -15.160156 49.09375 -20.390625 C 49.09375 -25.617188 47.320312 -29.867188 43.78125 -33.140625 L 17.59375 -57.40625 C 12.6875 -61.957031 10.234375 -67.457031 10.234375 -73.90625 C 10.234375 -80.363281 12.390625 -85.890625 16.703125 -90.484375 C 21.023438 -95.078125 26.867188 -97.375 34.234375 -97.375 C 37.679688 -97.375 41.585938 -96.921875 45.953125 -96.015625 L 51.28125 -96.015625 L 51.28125 -79.234375 L 50.046875 -79.234375 C 50.046875 -83.503906 48.566406 -86.910156 45.609375 -89.453125 C 42.660156 -92.003906 38.867188 -93.28125 34.234375 -93.28125 C 29.597656 -93.28125 25.707031 -91.734375 22.5625 -88.640625 C 19.425781 -85.546875 17.859375 -81.679688 17.859375 -77.046875 C 17.859375 -72.410156 19.675781 -68.410156 23.3125 -65.046875 L 50.1875 -40.234375 C 54.726562 -36.046875 57 -30.316406 57 -23.046875 C 57 -15.773438 54.679688 -9.796875 50.046875 -5.109375 C 45.410156 -0.429688 39.226562 1.90625 31.5 1.90625 C 27.5 1.90625 23.25 1.289062 18.75 0.0625 C 14.25 -1.15625 10.769531 -3.039062 8.3125 -5.59375 Z M 8.3125 -5.59375 "/></g></g></g></g></g><g fill="#ffffff" fill-opacity="1"><g transform="translate(339.90979, 1208.876372)"><g><path d="M 19.703125 0.390625 C 16.367188 0.390625 13.171875 -0.144531 10.109375 -1.21875 C 7.046875 -2.289062 4.679688 -3.703125 3.015625 -5.453125 L 4.875 -9.109375 C 6.5 -7.484375 8.660156 -6.164062 11.359375 -5.15625 C 14.054688 -4.15625 16.835938 -3.65625 19.703125 -3.65625 C 23.722656 -3.65625 26.738281 -4.394531 28.75 -5.875 C 30.757812 -7.351562 31.765625 -9.269531 31.765625 -11.625 C 31.765625 -13.414062 31.21875 -14.84375 30.125 -15.90625 C 29.039062 -16.976562 27.707031 -17.800781 26.125 -18.375 C 24.539062 -18.957031 22.335938 -19.59375 19.515625 -20.28125 C 16.128906 -21.132812 13.429688 -21.957031 11.421875 -22.75 C 9.410156 -23.539062 7.6875 -24.75 6.25 -26.375 C 4.820312 -28 4.109375 -30.207031 4.109375 -33 C 4.109375 -35.257812 4.707031 -37.320312 5.90625 -39.1875 C 7.101562 -41.050781 8.941406 -42.535156 11.421875 -43.640625 C 13.898438 -44.753906 16.984375 -45.3125 20.671875 -45.3125 C 23.234375 -45.3125 25.742188 -44.957031 28.203125 -44.25 C 30.671875 -43.550781 32.800781 -42.582031 34.59375 -41.34375 L 33 -37.546875 C 31.113281 -38.785156 29.097656 -39.710938 26.953125 -40.328125 C 24.816406 -40.953125 22.722656 -41.265625 20.671875 -41.265625 C 16.734375 -41.265625 13.769531 -40.503906 11.78125 -38.984375 C 9.789062 -37.472656 8.796875 -35.519531 8.796875 -33.125 C 8.796875 -31.320312 9.335938 -29.875 10.421875 -28.78125 C 11.515625 -27.695312 12.882812 -26.863281 14.53125 -26.28125 C 16.1875 -25.707031 18.40625 -25.078125 21.1875 -24.390625 C 24.476562 -23.578125 27.140625 -22.773438 29.171875 -21.984375 C 31.203125 -21.191406 32.921875 -19.992188 34.328125 -18.390625 C 35.742188 -16.785156 36.453125 -14.613281 36.453125 -11.875 C 36.453125 -9.601562 35.84375 -7.535156 34.625 -5.671875 C 33.40625 -3.816406 31.53125 -2.34375 29 -1.25 C 26.476562 -0.15625 23.378906 0.390625 19.703125 0.390625 Z M 19.703125 0.390625 "/></g></g></g><g fill="#ffffff" fill-opacity="1"><g transform="translate(434.156879, 1208.876372)"><g><path d="M 26.953125 0.390625 C 22.503906 0.390625 18.472656 -0.601562 14.859375 -2.59375 C 11.242188 -4.582031 8.421875 -7.3125 6.390625 -10.78125 C 4.359375 -14.25 3.34375 -18.144531 3.34375 -22.46875 C 3.34375 -26.789062 4.359375 -30.679688 6.390625 -34.140625 C 8.421875 -37.609375 11.242188 -40.335938 14.859375 -42.328125 C 18.472656 -44.316406 22.503906 -45.3125 26.953125 -45.3125 C 31.410156 -45.3125 35.425781 -44.328125 39 -42.359375 C 42.570312 -40.390625 45.382812 -37.660156 47.4375 -34.171875 C 49.488281 -30.691406 50.515625 -26.789062 50.515625 -22.46875 C 50.515625 -18.144531 49.488281 -14.238281 47.4375 -10.75 C 45.382812 -7.257812 42.570312 -4.53125 39 -2.5625 C 35.425781 -0.59375 31.410156 0.390625 26.953125 0.390625 Z M 26.953125 -3.84375 C 30.503906 -3.84375 33.710938 -4.644531 36.578125 -6.25 C 39.453125 -7.863281 41.703125 -10.09375 43.328125 -12.9375 C 44.953125 -15.78125 45.765625 -18.957031 45.765625 -22.46875 C 45.765625 -25.976562 44.953125 -29.15625 43.328125 -32 C 41.703125 -34.84375 39.453125 -37.066406 36.578125 -38.671875 C 33.710938 -40.273438 30.503906 -41.078125 26.953125 -41.078125 C 23.398438 -41.078125 20.179688 -40.273438 17.296875 -38.671875 C 14.410156 -37.066406 12.144531 -34.84375 10.5 -32 C 8.851562 -29.15625 8.03125 -25.976562 8.03125 -22.46875 C 8.03125 -18.957031 8.851562 -15.78125 10.5 -12.9375 C 12.144531 -10.09375 14.410156 -7.863281 17.296875 -6.25 C 20.179688 -4.644531 23.398438 -3.84375 26.953125 -3.84375 Z M 26.953125 -3.84375 "/></g></g></g><g fill="#ffffff" fill-opacity="1"><g transform="translate(542.78111, 1208.876372)"><g><path d="M 7.3125 -44.9375 L 12.0625 -44.9375 L 12.0625 -4.109375 L 37.234375 -4.109375 L 37.234375 0 L 7.3125 0 Z M 7.3125 -44.9375 "/></g></g></g><g fill="#ffffff" fill-opacity="1"><g transform="translate(634.524998, 1208.876372)"><g><path d="M 25.421875 0.390625 C 19.597656 0.390625 15.0625 -1.273438 11.8125 -4.609375 C 8.5625 -7.953125 6.9375 -12.8125 6.9375 -19.1875 L 6.9375 -44.9375 L 11.6875 -44.9375 L 11.6875 -19.390625 C 11.6875 -14.160156 12.863281 -10.257812 15.21875 -7.6875 C 17.570312 -5.125 20.972656 -3.84375 25.421875 -3.84375 C 29.910156 -3.84375 33.332031 -5.125 35.6875 -7.6875 C 38.039062 -10.257812 39.21875 -14.160156 39.21875 -19.390625 L 39.21875 -44.9375 L 43.84375 -44.9375 L 43.84375 -19.1875 C 43.84375 -12.8125 42.222656 -7.953125 38.984375 -4.609375 C 35.753906 -1.273438 31.234375 0.390625 25.421875 0.390625 Z M 25.421875 0.390625 "/></g></g></g><g fill="#ffffff" fill-opacity="1"><g transform="translate(739.234035, 1208.876372)"><g><path d="M 16.046875 -40.828125 L 0.25 -40.828125 L 0.25 -44.9375 L 36.59375 -44.9375 L 36.59375 -40.828125 L 20.796875 -40.828125 L 20.796875 0 L 16.046875 0 Z M 16.046875 -40.828125 "/></g></g></g><g fill="#ffffff" fill-opacity="1"><g transform="translate(830.849567, 1208.876372)"><g><path d="M 7.3125 -44.9375 L 12.0625 -44.9375 L 12.0625 0 L 7.3125 0 Z M 7.3125 -44.9375 "/></g></g></g><g fill="#ffffff" fill-opacity="1"><g transform="translate(905.007184, 1208.876372)"><g><path d="M 26.953125 0.390625 C 22.503906 0.390625 18.472656 -0.601562 14.859375 -2.59375 C 11.242188 -4.582031 8.421875 -7.3125 6.390625 -10.78125 C 4.359375 -14.25 3.34375 -18.144531 3.34375 -22.46875 C 3.34375 -26.789062 4.359375 -30.679688 6.390625 -34.140625 C 8.421875 -37.609375 11.242188 -40.335938 14.859375 -42.328125 C 18.472656 -44.316406 22.503906 -45.3125 26.953125 -45.3125 C 31.410156 -45.3125 35.425781 -44.328125 39 -42.359375 C 42.570312 -40.390625 45.382812 -37.660156 47.4375 -34.171875 C 49.488281 -30.691406 50.515625 -26.789062 50.515625 -22.46875 C 50.515625 -18.144531 49.488281 -14.238281 47.4375 -10.75 C 45.382812 -7.257812 42.570312 -4.53125 39 -2.5625 C 35.425781 -0.59375 31.410156 0.390625 26.953125 0.390625 Z M 26.953125 -3.84375 C 30.503906 -3.84375 33.710938 -4.644531 36.578125 -6.25 C 39.453125 -7.863281 41.703125 -10.09375 43.328125 -12.9375 C 44.953125 -15.78125 45.765625 -18.957031 45.765625 -22.46875 C 45.765625 -25.976562 44.953125 -29.15625 43.328125 -32 C 41.703125 -34.84375 39.453125 -37.066406 36.578125 -38.671875 C 33.710938 -40.273438 30.503906 -41.078125 26.953125 -41.078125 C 23.398438 -41.078125 20.179688 -40.273438 17.296875 -38.671875 C 14.410156 -37.066406 12.144531 -34.84375 10.5 -32 C 8.851562 -29.15625 8.03125 -25.976562 8.03125 -22.46875 C 8.03125 -18.957031 8.851562 -15.78125 10.5 -12.9375 C 12.144531 -10.09375 14.410156 -7.863281 17.296875 -6.25 C 20.179688 -4.644531 23.398438 -3.84375 26.953125 -3.84375 Z M 26.953125 -3.84375 "/></g></g></g><g fill="#ffffff" fill-opacity="1"><g transform="translate(1013.631381, 1208.876372)"><g><path d="M 44.859375 -44.9375 L 44.859375 0 L 40.953125 0 L 12.0625 -36.453125 L 12.0625 0 L 7.3125 0 L 7.3125 -44.9375 L 11.234375 -44.9375 L 40.1875 -8.46875 L 40.1875 -44.9375 Z M 44.859375 -44.9375 "/></g></g></g><g fill="#ffffff" fill-opacity="1"><g transform="translate(1120.586847, 1208.876372)"><g><path d="M 19.703125 0.390625 C 16.367188 0.390625 13.171875 -0.144531 10.109375 -1.21875 C 7.046875 -2.289062 4.679688 -3.703125 3.015625 -5.453125 L 4.875 -9.109375 C 6.5 -7.484375 8.660156 -6.164062 11.359375 -5.15625 C 14.054688 -4.15625 16.835938 -3.65625 19.703125 -3.65625 C 23.722656 -3.65625 26.738281 -4.394531 28.75 -5.875 C 30.757812 -7.351562 31.765625 -9.269531 31.765625 -11.625 C 31.765625 -13.414062 31.21875 -14.84375 30.125 -15.90625 C 29.039062 -16.976562 27.707031 -17.800781 26.125 -18.375 C 24.539062 -18.957031 22.335938 -19.59375 19.515625 -20.28125 C 16.128906 -21.132812 13.429688 -21.957031 11.421875 -22.75 C 9.410156 -23.539062 7.6875 -24.75 6.25 -26.375 C 4.820312 -28 4.109375 -30.207031 4.109375 -33 C 4.109375 -35.257812 4.707031 -37.320312 5.90625 -39.1875 C 7.101562 -41.050781 8.941406 -42.535156 11.421875 -43.640625 C 13.898438 -44.753906 16.984375 -45.3125 20.671875 -45.3125 C 23.234375 -45.3125 25.742188 -44.957031 28.203125 -44.25 C 30.671875 -43.550781 32.800781 -42.582031 34.59375 -41.34375 L 33 -37.546875 C 31.113281 -38.785156 29.097656 -39.710938 26.953125 -40.328125 C 24.816406 -40.953125 22.722656 -41.265625 20.671875 -41.265625 C 16.734375 -41.265625 13.769531 -40.503906 11.78125 -38.984375 C 9.789062 -37.472656 8.796875 -35.519531 8.796875 -33.125 C 8.796875 -31.320312 9.335938 -29.875 10.421875 -28.78125 C 11.515625 -27.695312 12.882812 -26.863281 14.53125 -26.28125 C 16.1875 -25.707031 18.40625 -25.078125 21.1875 -24.390625 C 24.476562 -23.578125 27.140625 -22.773438 29.171875 -21.984375 C 31.203125 -21.191406 32.921875 -19.992188 34.328125 -18.390625 C 35.742188 -16.785156 36.453125 -14.613281 36.453125 -11.875 C 36.453125 -9.601562 35.84375 -7.535156 34.625 -5.671875 C 33.40625 -3.816406 31.53125 -2.34375 29 -1.25 C 26.476562 -0.15625 23.378906 0.390625 19.703125 0.390625 Z M 19.703125 0.390625 "/></g></g></g><path stroke-linecap="butt" transform="matrix(0.749991, -0.00375088, 0.00375088, 0.749991, 384.344825, 1106.834405)" fill="none" stroke-linejoin="miter" d="M -0.00102941 2.002064 L 399.90505 2.002063 " stroke="#ffffff" stroke-width="4" stroke-opacity="1" stroke-miterlimit="4"/></svg>