<svg xmlns="http://www.w3.org/2000/svg" xmlns:xlink="http://www.w3.org/1999/xlink" width="2000" zoomAndPan="magnify" viewBox="466 383 568 733" height="2000" preserveAspectRatio="xMidYMid meet" version="1.0"><defs><clipPath id="9ce44de6ef"><path d="M 486.28125 634.90625 L 1013.527344 634.90625 L 1013.527344 1096.15625 L 486.28125 1096.15625 Z M 486.28125 634.90625 " clip-rule="nonzero"/></clipPath><clipPath id="1f92a120e9"><path d="M 749.785156 634.613281 L 486.046875 1096.15625 L 1013.527344 1096.15625 Z M 749.785156 634.613281 " clip-rule="nonzero"/></clipPath><clipPath id="81624e46a7"><path d="M 486.472656 403.835938 L 1013.71875 403.835938 L 1013.71875 865.085938 L 486.472656 865.085938 Z M 486.472656 403.835938 " clip-rule="nonzero"/></clipPath><clipPath id="ce2f2db3a6"><path d="M 750.210938 865.378906 L 1013.949219 403.835938 L 486.472656 403.835938 Z M 750.210938 865.378906 " clip-rule="nonzero"/></clipPath></defs><g clip-path="url(#9ce44de6ef)"><g clip-path="url(#1f92a120e9)"><path stroke-linecap="butt" transform="matrix(-0.75, 0, 0, -0.75, 1013.52933, 1096.155366)" fill="none" stroke-linejoin="miter" d="M 351.65372 615.389499 L 703.310001 -0.00117922 L 0.0026484 -0.00117922 Z M 351.65372 615.389499 " stroke="#ffffff" stroke-width="50" stroke-opacity="1" stroke-miterlimit="4"/></g></g><g clip-path="url(#81624e46a7)"><g clip-path="url(#ce2f2db3a6)"><path stroke-linecap="butt" transform="matrix(0.75, 0, 0, 0.75, 486.469287, 403.837457)" fill="none" stroke-linejoin="miter" d="M 351.655564 615.388652 L 703.306636 -0.00202629 L 0.00449174 -0.00202629 Z M 351.655564 615.388652 " stroke="#ffffff" stroke-width="50" stroke-opacity="1" stroke-miterlimit="4"/></g></g></svg>