<svg xmlns="http://www.w3.org/2000/svg" xmlns:xlink="http://www.w3.org/1999/xlink" width="2000" zoomAndPan="magnify" viewBox="0 0 1500 1499.999933" height="2000" preserveAspectRatio="xMidYMid meet" version="1.0"><defs><clipPath id="38cc34e870"><path d="M 486.28125 634.90625 L 1013.527344 634.90625 L 1013.527344 1096.15625 L 486.28125 1096.15625 Z M 486.28125 634.90625 " clip-rule="nonzero"/></clipPath><clipPath id="57a4b70c32"><path d="M 749.785156 634.613281 L 486.046875 1096.15625 L 1013.527344 1096.15625 Z M 749.785156 634.613281 " clip-rule="nonzero"/></clipPath><clipPath id="64d7b23eef"><path d="M 486.472656 403.835938 L 1013.71875 403.835938 L 1013.71875 865.085938 L 486.472656 865.085938 Z M 486.472656 403.835938 " clip-rule="nonzero"/></clipPath><clipPath id="c143631ac8"><path d="M 750.210938 865.378906 L 1013.949219 403.835938 L 486.472656 403.835938 Z M 750.210938 865.378906 " clip-rule="nonzero"/></clipPath></defs><g clip-path="url(#38cc34e870)"><g clip-path="url(#57a4b70c32)"><path stroke-linecap="butt" transform="matrix(-0.75, 0, 0, -0.75, 1013.52933, 1096.155366)" fill="none" stroke-linejoin="miter" d="M 351.65372 615.389499 L 703.310001 -0.00117922 L 0.0026484 -0.00117922 Z M 351.65372 615.389499 " stroke="#000000" stroke-width="50" stroke-opacity="1" stroke-miterlimit="4"/></g></g><g clip-path="url(#64d7b23eef)"><g clip-path="url(#c143631ac8)"><path stroke-linecap="butt" transform="matrix(0.75, 0, 0, 0.75, 486.469287, 403.837457)" fill="none" stroke-linejoin="miter" d="M 351.655564 615.388652 L 703.306636 -0.00202629 L 0.00449174 -0.00202629 Z M 351.655564 615.388652 " stroke="#000000" stroke-width="50" stroke-opacity="1" stroke-miterlimit="4"/></g></g></svg>