<svg xmlns="http://www.w3.org/2000/svg" xmlns:xlink="http://www.w3.org/1999/xlink" width="2000" zoomAndPan="magnify" viewBox="0 0 1500 937.499967" height="1250" preserveAspectRatio="xMidYMid meet" version="1.0"><defs><g/><clipPath id="77d4412fb9"><rect x="0" width="840" y="0" height="232"/></clipPath><clipPath id="ab0ba0233a"><rect x="0" width="900" y="0" height="145"/></clipPath><clipPath id="e412db3eb0"><path d="M 38.914062 215.414062 L 376.230469 215.414062 L 376.230469 552.734375 L 38.914062 552.734375 Z M 38.914062 215.414062 " clip-rule="nonzero"/></clipPath><clipPath id="e1708ac83f"><path d="M 376.359375 290.371094 L 376.359375 477.902344 C 376.359375 519.300781 342.800781 552.863281 301.402344 552.863281 L 113.871094 552.863281 C 72.472656 552.863281 38.914062 519.300781 38.914062 477.902344 L 38.914062 290.371094 C 38.914062 248.972656 72.472656 215.414062 113.871094 215.414062 L 301.402344 215.414062 C 342.800781 215.414062 376.359375 248.972656 376.359375 290.371094 Z M 376.359375 290.371094 " clip-rule="nonzero"/></clipPath><clipPath id="cd72740c38"><path d="M 207.640625 384.136719 L 544.960938 384.136719 L 544.960938 721.457031 L 207.640625 721.457031 Z M 207.640625 384.136719 " clip-rule="nonzero"/></clipPath><clipPath id="4943534a29"><path d="M 545.089844 459.097656 L 545.089844 646.628906 C 545.089844 688.027344 511.527344 721.585938 470.128906 721.585938 L 282.597656 721.585938 C 241.199219 721.585938 207.640625 688.027344 207.640625 646.628906 L 207.640625 459.097656 C 207.640625 417.699219 241.199219 384.136719 282.597656 384.136719 L 470.128906 384.136719 C 511.527344 384.136719 545.089844 417.699219 545.089844 459.097656 Z M 545.089844 459.097656 " clip-rule="nonzero"/></clipPath><clipPath id="83a4bca378"><path d="M 201.03125 507.679688 L 261.578125 507.679688 L 261.578125 552.867188 L 201.03125 552.867188 Z M 201.03125 507.679688 " clip-rule="nonzero"/></clipPath><clipPath id="df224917ea"><path d="M 0.03125 0.679688 L 60.578125 0.679688 L 60.578125 45.867188 L 0.03125 45.867188 Z M 0.03125 0.679688 " clip-rule="nonzero"/></clipPath><clipPath id="fbec1353d4"><rect x="0" width="61" y="0" height="46"/></clipPath></defs><g transform="matrix(1, 0, 0, 1, 592, 262)"><g clip-path="url(#77d4412fb9)"><g fill="#0f1b2e" fill-opacity="1"><g transform="translate(2.100734, 179.85458)"><g><path d="M 45.21875 -113.046875 L 0.765625 -113.046875 L 0.765625 -134.109375 L 114.578125 -134.109375 L 114.578125 -113.046875 L 70.125 -113.046875 L 70.125 0 L 45.21875 0 Z M 45.21875 -113.046875 "/></g></g></g><g fill="#0f1b2e" fill-opacity="1"><g transform="translate(117.43694, 179.85458)"><g><path d="M 118.59375 -20.890625 L 118.59375 0 L 18.015625 0 L 18.015625 -134.109375 L 115.921875 -134.109375 L 115.921875 -113.234375 L 42.921875 -113.234375 L 42.921875 -78.359375 L 107.671875 -78.359375 L 107.671875 -57.859375 L 42.921875 -57.859375 L 42.921875 -20.890625 Z M 118.59375 -20.890625 "/></g></g></g><g fill="#0f1b2e" fill-opacity="1"><g transform="translate(245.801163, 179.85458)"><g><path d="M 141.203125 0 L 141.015625 -88.90625 L 96.953125 -15.328125 L 85.828125 -15.328125 L 41.765625 -87.75 L 41.765625 0 L 18.015625 0 L 18.015625 -134.109375 L 38.515625 -134.109375 L 91.765625 -45.21875 L 144.078125 -134.109375 L 164.578125 -134.109375 L 164.765625 0 Z M 141.203125 0 "/></g></g></g><g fill="#0f1b2e" fill-opacity="1"><g transform="translate(428.768059, 179.85458)"><g><path d="M 73.1875 -134.109375 C 84.8125 -134.109375 94.929688 -132.191406 103.546875 -128.359375 C 112.171875 -124.535156 118.78125 -119.046875 123.375 -111.890625 C 127.976562 -104.734375 130.28125 -96.238281 130.28125 -86.40625 C 130.28125 -76.695312 127.976562 -68.234375 123.375 -61.015625 C 118.78125 -53.804688 112.171875 -48.285156 103.546875 -44.453125 C 94.929688 -40.617188 84.8125 -38.703125 73.1875 -38.703125 L 42.921875 -38.703125 L 42.921875 0 L 18.015625 0 L 18.015625 -134.109375 Z M 72.046875 -59.78125 C 82.898438 -59.78125 91.132812 -62.078125 96.75 -66.671875 C 102.375 -71.273438 105.1875 -77.851562 105.1875 -86.40625 C 105.1875 -94.96875 102.375 -101.546875 96.75 -106.140625 C 91.132812 -110.742188 82.898438 -113.046875 72.046875 -113.046875 L 42.921875 -113.046875 L 42.921875 -59.78125 Z M 72.046875 -59.78125 "/></g></g></g><g fill="#0f1b2e" fill-opacity="1"><g transform="translate(565.945362, 179.85458)"><g><path d="M 75.671875 1.921875 C 57.148438 1.921875 42.71875 -3.28125 32.375 -13.6875 C 22.03125 -24.101562 16.859375 -39.019531 16.859375 -58.4375 L 16.859375 -134.109375 L 41.765625 -134.109375 L 41.765625 -59.390625 C 41.765625 -33.078125 53.132812 -19.921875 75.875 -19.921875 C 98.476562 -19.921875 109.78125 -33.078125 109.78125 -59.390625 L 109.78125 -134.109375 L 134.3125 -134.109375 L 134.3125 -58.4375 C 134.3125 -39.019531 129.164062 -24.101562 118.875 -13.6875 C 108.59375 -3.28125 94.191406 1.921875 75.671875 1.921875 Z M 75.671875 1.921875 "/></g></g></g><g fill="#0f1b2e" fill-opacity="1"><g transform="translate(717.108577, 179.85458)"><g><path d="M 59.578125 1.921875 C 49.234375 1.921875 39.238281 0.449219 29.59375 -2.484375 C 19.957031 -5.421875 12.328125 -9.316406 6.703125 -14.171875 L 15.328125 -33.53125 C 20.816406 -29.1875 27.550781 -25.640625 35.53125 -22.890625 C 43.519531 -20.148438 51.535156 -18.78125 59.578125 -18.78125 C 69.546875 -18.78125 76.988281 -20.375 81.90625 -23.5625 C 86.820312 -26.757812 89.28125 -30.976562 89.28125 -36.21875 C 89.28125 -40.039062 87.90625 -43.195312 85.15625 -45.6875 C 82.414062 -48.1875 78.9375 -50.132812 74.71875 -51.53125 C 70.507812 -52.9375 64.765625 -54.535156 57.484375 -56.328125 C 47.265625 -58.753906 38.992188 -61.179688 32.671875 -63.609375 C 26.347656 -66.035156 20.914062 -69.832031 16.375 -75 C 11.84375 -80.175781 9.578125 -87.171875 9.578125 -95.984375 C 9.578125 -103.390625 11.585938 -110.125 15.609375 -116.1875 C 19.640625 -122.257812 25.707031 -127.082031 33.8125 -130.65625 C 41.925781 -134.238281 51.859375 -136.03125 63.609375 -136.03125 C 71.785156 -136.03125 79.832031 -135.007812 87.75 -132.96875 C 95.664062 -130.925781 102.5 -127.988281 108.25 -124.15625 L 100.390625 -104.796875 C 94.515625 -108.242188 88.382812 -110.863281 82 -112.65625 C 75.613281 -114.445312 69.421875 -115.34375 63.421875 -115.34375 C 53.585938 -115.34375 46.273438 -113.679688 41.484375 -110.359375 C 36.691406 -107.035156 34.296875 -102.628906 34.296875 -97.140625 C 34.296875 -93.304688 35.664062 -90.175781 38.40625 -87.75 C 41.15625 -85.320312 44.632812 -83.40625 48.84375 -82 C 53.0625 -80.59375 58.8125 -79 66.09375 -77.21875 C 76.0625 -74.914062 84.238281 -72.519531 90.625 -70.03125 C 97.007812 -67.539062 102.46875 -63.738281 107 -58.625 C 111.539062 -53.519531 113.8125 -46.625 113.8125 -37.9375 C 113.8125 -30.53125 111.796875 -23.820312 107.765625 -17.8125 C 103.742188 -11.8125 97.644531 -7.019531 89.46875 -3.4375 C 81.300781 0.132812 71.335938 1.921875 59.578125 1.921875 Z M 59.578125 1.921875 "/></g></g></g></g></g><g transform="matrix(1, 0, 0, 1, 573, 486)"><g clip-path="url(#ab0ba0233a)"><g fill="#2e7d32" fill-opacity="1"><g transform="translate(0.441783, 114.1605)"><g><path d="M 36.390625 0.9375 C 30.179688 0.9375 24.191406 -0.0195312 18.421875 -1.9375 C 12.648438 -3.863281 8.117188 -6.359375 4.828125 -9.421875 L 9.1875 -18.609375 C 12.320312 -15.773438 16.34375 -13.472656 21.25 -11.703125 C 26.15625 -9.941406 31.203125 -9.0625 36.390625 -9.0625 C 43.210938 -9.0625 48.3125 -10.21875 51.6875 -12.53125 C 55.0625 -14.851562 56.75 -17.9375 56.75 -21.78125 C 56.75 -24.601562 55.828125 -26.898438 53.984375 -28.671875 C 52.140625 -30.441406 49.863281 -31.796875 47.15625 -32.734375 C 44.445312 -33.671875 40.617188 -34.726562 35.671875 -35.90625 C 29.472656 -37.40625 24.46875 -38.898438 20.65625 -40.390625 C 16.851562 -41.878906 13.597656 -44.171875 10.890625 -47.265625 C 8.179688 -50.367188 6.828125 -54.550781 6.828125 -59.8125 C 6.828125 -64.207031 7.984375 -68.171875 10.296875 -71.703125 C 12.617188 -75.242188 16.132812 -78.070312 20.84375 -80.1875 C 25.550781 -82.300781 31.398438 -83.359375 38.390625 -83.359375 C 43.253906 -83.359375 48.039062 -82.726562 52.75 -81.46875 C 57.457031 -80.21875 61.5 -78.414062 64.875 -76.0625 L 61 -66.640625 C 57.539062 -68.835938 53.847656 -70.503906 49.921875 -71.640625 C 45.992188 -72.785156 42.148438 -73.359375 38.390625 -73.359375 C 31.710938 -73.359375 26.707031 -72.140625 23.375 -69.703125 C 20.039062 -67.273438 18.375 -64.132812 18.375 -60.28125 C 18.375 -57.457031 19.3125 -55.160156 21.1875 -53.390625 C 23.070312 -51.628906 25.40625 -50.257812 28.1875 -49.28125 C 30.976562 -48.300781 34.769531 -47.257812 39.5625 -46.15625 C 45.757812 -44.664062 50.742188 -43.175781 54.515625 -41.6875 C 58.285156 -40.195312 61.523438 -37.921875 64.234375 -34.859375 C 66.941406 -31.796875 68.296875 -27.671875 68.296875 -22.484375 C 68.296875 -18.171875 67.117188 -14.226562 64.765625 -10.65625 C 62.410156 -7.082031 58.835938 -4.253906 54.046875 -2.171875 C 49.253906 -0.0976562 43.367188 0.9375 36.390625 0.9375 Z M 36.390625 0.9375 "/></g></g></g><g fill="#2e7d32" fill-opacity="1"><g transform="translate(94.996793, 114.1605)"><g><path d="M 49.578125 0.9375 C 41.253906 0.9375 33.753906 -0.882812 27.078125 -4.53125 C 20.410156 -8.1875 15.171875 -13.226562 11.359375 -19.65625 C 7.554688 -26.09375 5.65625 -33.28125 5.65625 -41.21875 C 5.65625 -49.144531 7.554688 -56.328125 11.359375 -62.765625 C 15.171875 -69.203125 20.410156 -74.242188 27.078125 -77.890625 C 33.753906 -81.535156 41.253906 -83.359375 49.578125 -83.359375 C 57.816406 -83.359375 65.269531 -81.535156 71.9375 -77.890625 C 78.613281 -74.242188 83.835938 -69.21875 87.609375 -62.8125 C 91.378906 -56.414062 93.265625 -49.21875 93.265625 -41.21875 C 93.265625 -33.207031 91.378906 -26.003906 87.609375 -19.609375 C 83.835938 -13.210938 78.613281 -8.1875 71.9375 -4.53125 C 65.269531 -0.882812 57.816406 0.9375 49.578125 0.9375 Z M 49.578125 -9.53125 C 55.617188 -9.53125 61.050781 -10.90625 65.875 -13.65625 C 70.707031 -16.40625 74.515625 -20.191406 77.296875 -25.015625 C 80.085938 -29.847656 81.484375 -35.25 81.484375 -41.21875 C 81.484375 -47.175781 80.085938 -52.566406 77.296875 -57.390625 C 74.515625 -62.222656 70.707031 -66.015625 65.875 -68.765625 C 61.050781 -71.515625 55.617188 -72.890625 49.578125 -72.890625 C 43.523438 -72.890625 38.046875 -71.515625 33.140625 -68.765625 C 28.234375 -66.015625 24.382812 -62.222656 21.59375 -57.390625 C 18.8125 -52.566406 17.421875 -47.175781 17.421875 -41.21875 C 17.421875 -35.25 18.8125 -29.847656 21.59375 -25.015625 C 24.382812 -20.191406 28.234375 -16.40625 33.140625 -13.65625 C 38.046875 -10.90625 43.523438 -9.53125 49.578125 -9.53125 Z M 49.578125 -9.53125 "/></g></g></g><g fill="#2e7d32" fill-opacity="1"><g transform="translate(215.339221, 114.1605)"><g><path d="M 12.359375 -82.421875 L 24.140625 -82.421875 L 24.140625 -10.25 L 68.765625 -10.25 L 68.765625 0 L 12.359375 0 Z M 12.359375 -82.421875 "/></g></g></g><g fill="#2e7d32" fill-opacity="1"><g transform="translate(305.301902, 114.1605)"><g><path d="M 46.515625 0.9375 C 35.523438 0.9375 26.96875 -2.195312 20.84375 -8.46875 C 14.71875 -14.75 11.65625 -23.78125 11.65625 -35.5625 L 11.65625 -82.421875 L 23.4375 -82.421875 L 23.4375 -36.03125 C 23.4375 -18.363281 31.164062 -9.53125 46.625 -9.53125 C 54.164062 -9.53125 59.9375 -11.707031 63.9375 -16.0625 C 67.9375 -20.425781 69.9375 -27.082031 69.9375 -36.03125 L 69.9375 -82.421875 L 81.359375 -82.421875 L 81.359375 -35.5625 C 81.359375 -23.707031 78.296875 -14.660156 72.171875 -8.421875 C 66.054688 -2.179688 57.503906 0.9375 46.515625 0.9375 Z M 46.515625 0.9375 "/></g></g></g><g fill="#2e7d32" fill-opacity="1"><g transform="translate(418.343768, 114.1605)"><g><path d="M 28.734375 -72.1875 L 0.46875 -72.1875 L 0.46875 -82.421875 L 68.640625 -82.421875 L 68.640625 -72.1875 L 40.390625 -72.1875 L 40.390625 0 L 28.734375 0 Z M 28.734375 -72.1875 "/></g></g></g><g fill="#2e7d32" fill-opacity="1"><g transform="translate(508.895234, 114.1605)"><g><path d="M 12.359375 -82.421875 L 24.140625 -82.421875 L 24.140625 0 L 12.359375 0 Z M 12.359375 -82.421875 "/></g></g></g><g fill="#2e7d32" fill-opacity="1"><g transform="translate(566.82976, 114.1605)"><g><path d="M 49.578125 0.9375 C 41.253906 0.9375 33.753906 -0.882812 27.078125 -4.53125 C 20.410156 -8.1875 15.171875 -13.226562 11.359375 -19.65625 C 7.554688 -26.09375 5.65625 -33.28125 5.65625 -41.21875 C 5.65625 -49.144531 7.554688 -56.328125 11.359375 -62.765625 C 15.171875 -69.203125 20.410156 -74.242188 27.078125 -77.890625 C 33.753906 -81.535156 41.253906 -83.359375 49.578125 -83.359375 C 57.816406 -83.359375 65.269531 -81.535156 71.9375 -77.890625 C 78.613281 -74.242188 83.835938 -69.21875 87.609375 -62.8125 C 91.378906 -56.414062 93.265625 -49.21875 93.265625 -41.21875 C 93.265625 -33.207031 91.378906 -26.003906 87.609375 -19.609375 C 83.835938 -13.210938 78.613281 -8.1875 71.9375 -4.53125 C 65.269531 -0.882812 57.816406 0.9375 49.578125 0.9375 Z M 49.578125 -9.53125 C 55.617188 -9.53125 61.050781 -10.90625 65.875 -13.65625 C 70.707031 -16.40625 74.515625 -20.191406 77.296875 -25.015625 C 80.085938 -29.847656 81.484375 -35.25 81.484375 -41.21875 C 81.484375 -47.175781 80.085938 -52.566406 77.296875 -57.390625 C 74.515625 -62.222656 70.707031 -66.015625 65.875 -68.765625 C 61.050781 -71.515625 55.617188 -72.890625 49.578125 -72.890625 C 43.523438 -72.890625 38.046875 -71.515625 33.140625 -68.765625 C 28.234375 -66.015625 24.382812 -62.222656 21.59375 -57.390625 C 18.8125 -52.566406 17.421875 -47.175781 17.421875 -41.21875 C 17.421875 -35.25 18.8125 -29.847656 21.59375 -25.015625 C 24.382812 -20.191406 28.234375 -16.40625 33.140625 -13.65625 C 38.046875 -10.90625 43.523438 -9.53125 49.578125 -9.53125 Z M 49.578125 -9.53125 "/></g></g></g><g fill="#2e7d32" fill-opacity="1"><g transform="translate(687.172168, 114.1605)"><g><path d="M 83.25 -82.421875 L 83.25 0 L 73.59375 0 L 24.140625 -61.46875 L 24.140625 0 L 12.359375 0 L 12.359375 -82.421875 L 22.015625 -82.421875 L 71.46875 -20.953125 L 71.46875 -82.421875 Z M 83.25 -82.421875 "/></g></g></g><g fill="#2e7d32" fill-opacity="1"><g transform="translate(804.21756, 114.1605)"><g><path d="M 36.390625 0.9375 C 30.179688 0.9375 24.191406 -0.0195312 18.421875 -1.9375 C 12.648438 -3.863281 8.117188 -6.359375 4.828125 -9.421875 L 9.1875 -18.609375 C 12.320312 -15.773438 16.34375 -13.472656 21.25 -11.703125 C 26.15625 -9.941406 31.203125 -9.0625 36.390625 -9.0625 C 43.210938 -9.0625 48.3125 -10.21875 51.6875 -12.53125 C 55.0625 -14.851562 56.75 -17.9375 56.75 -21.78125 C 56.75 -24.601562 55.828125 -26.898438 53.984375 -28.671875 C 52.140625 -30.441406 49.863281 -31.796875 47.15625 -32.734375 C 44.445312 -33.671875 40.617188 -34.726562 35.671875 -35.90625 C 29.472656 -37.40625 24.46875 -38.898438 20.65625 -40.390625 C 16.851562 -41.878906 13.597656 -44.171875 10.890625 -47.265625 C 8.179688 -50.367188 6.828125 -54.550781 6.828125 -59.8125 C 6.828125 -64.207031 7.984375 -68.171875 10.296875 -71.703125 C 12.617188 -75.242188 16.132812 -78.070312 20.84375 -80.1875 C 25.550781 -82.300781 31.398438 -83.359375 38.390625 -83.359375 C 43.253906 -83.359375 48.039062 -82.726562 52.75 -81.46875 C 57.457031 -80.21875 61.5 -78.414062 64.875 -76.0625 L 61 -66.640625 C 57.539062 -68.835938 53.847656 -70.503906 49.921875 -71.640625 C 45.992188 -72.785156 42.148438 -73.359375 38.390625 -73.359375 C 31.710938 -73.359375 26.707031 -72.140625 23.375 -69.703125 C 20.039062 -67.273438 18.375 -64.132812 18.375 -60.28125 C 18.375 -57.457031 19.3125 -55.160156 21.1875 -53.390625 C 23.070312 -51.628906 25.40625 -50.257812 28.1875 -49.28125 C 30.976562 -48.300781 34.769531 -47.257812 39.5625 -46.15625 C 45.757812 -44.664062 50.742188 -43.175781 54.515625 -41.6875 C 58.285156 -40.195312 61.523438 -37.921875 64.234375 -34.859375 C 66.941406 -31.796875 68.296875 -27.671875 68.296875 -22.484375 C 68.296875 -18.171875 67.117188 -14.226562 64.765625 -10.65625 C 62.410156 -7.082031 58.835938 -4.253906 54.046875 -2.171875 C 49.253906 -0.0976562 43.367188 0.9375 36.390625 0.9375 Z M 36.390625 0.9375 "/></g></g></g></g></g><g clip-path="url(#e412db3eb0)"><g clip-path="url(#e1708ac83f)"><path stroke-linecap="butt" transform="matrix(0.7496, 0, 0, 0.7496, 38.912161, 215.413417)" fill="none" stroke-linejoin="miter" d="M 450.169616 99.99688 L 450.169616 350.171921 C 450.169616 405.399281 405.400957 450.173151 350.173597 450.173151 L 99.998556 450.173151 C 44.771196 450.173151 0.00253678 405.399281 0.00253678 350.171921 L 0.00253678 99.99688 C 0.00253678 44.76952 44.771196 0.000861023 99.998556 0.000861023 L 350.173597 0.000861023 C 405.400957 0.000861023 450.169616 44.76952 450.169616 99.99688 Z M 450.169616 99.99688 " stroke="#0f1b2e" stroke-width="122" stroke-opacity="1" stroke-miterlimit="4"/></g></g><g clip-path="url(#cd72740c38)"><g clip-path="url(#4943534a29)"><path stroke-linecap="butt" transform="matrix(0.7496, 0, 0, 0.7496, 207.639441, 384.13787)" fill="none" stroke-linejoin="miter" d="M 450.173869 99.999694 L 450.173869 350.174736 C 450.173869 405.402096 405.399999 450.170755 350.172639 450.170755 L 99.997598 450.170755 C 44.770238 450.170755 0.00157894 405.402096 0.00157894 350.174736 L 0.00157894 99.999694 C 0.00157894 44.772335 44.770238 -0.00153545 99.997598 -0.00153545 L 350.172639 -0.00153545 C 405.399999 -0.00153545 450.173869 44.772335 450.173869 99.999694 Z M 450.173869 99.999694 " stroke="#2e7d32" stroke-width="122" stroke-opacity="1" stroke-miterlimit="4"/></g></g><g clip-path="url(#83a4bca378)"><g transform="matrix(1, 0, 0, 1, 201, 507)"><g clip-path="url(#fbec1353d4)"><g clip-path="url(#df224917ea)"><path fill="#0f1b2e" d="M 60.578125 0.679688 L 60.578125 45.867188 L 0.0390625 45.867188 L 0.0390625 0.679688 Z M 60.578125 0.679688 " fill-opacity="1" fill-rule="nonzero"/></g></g></g></g></svg>