<svg xmlns="http://www.w3.org/2000/svg" xmlns:xlink="http://www.w3.org/1999/xlink" width="2000" zoomAndPan="magnify" viewBox="0 0 1500 1499.999933" height="2000" preserveAspectRatio="xMidYMid meet" version="1.0"><defs><g/><clipPath id="d3b402cd6f"><path d="M 403.273438 221.011719 L 865.269531 221.011719 L 865.269531 683.011719 L 403.273438 683.011719 Z M 403.273438 221.011719 " clip-rule="nonzero"/></clipPath><clipPath id="130691832c"><path d="M 865.566406 296.007812 L 865.566406 608.304688 C 865.566406 628.195312 857.667969 647.273438 843.601562 661.335938 C 829.539062 675.402344 810.460938 683.304688 790.570312 683.304688 L 478.273438 683.304688 C 458.382812 683.304688 439.304688 675.402344 425.242188 661.335938 C 411.175781 647.273438 403.273438 628.195312 403.273438 608.304688 L 403.273438 296.007812 C 403.273438 276.117188 411.175781 257.042969 425.242188 242.976562 C 439.304688 228.910156 458.382812 221.011719 478.273438 221.011719 L 790.570312 221.011719 C 810.460938 221.011719 829.539062 228.910156 843.601562 242.976562 C 857.667969 257.042969 865.566406 276.117188 865.566406 296.007812 Z M 865.566406 296.007812 " clip-rule="nonzero"/></clipPath><clipPath id="edc70ecb98"><path d="M 634.429688 452.160156 L 1096.421875 452.160156 L 1096.421875 914.160156 L 634.429688 914.160156 Z M 634.429688 452.160156 " clip-rule="nonzero"/></clipPath><clipPath id="04cbbf93d6"><path d="M 1096.722656 527.15625 L 1096.722656 839.453125 C 1096.722656 859.34375 1088.820312 878.421875 1074.753906 892.488281 C 1060.691406 906.550781 1041.613281 914.453125 1021.722656 914.453125 L 709.425781 914.453125 C 689.535156 914.453125 670.460938 906.550781 656.394531 892.488281 C 642.332031 878.421875 634.429688 859.34375 634.429688 839.453125 L 634.429688 527.15625 C 634.429688 507.265625 642.332031 488.191406 656.394531 474.125 C 670.460938 460.0625 689.535156 452.160156 709.425781 452.160156 L 1021.722656 452.160156 C 1041.613281 452.160156 1060.691406 460.0625 1074.753906 474.125 C 1088.820312 488.191406 1096.722656 507.265625 1096.722656 527.15625 Z M 1096.722656 527.15625 " clip-rule="nonzero"/></clipPath><clipPath id="88fbe51e97"><path d="M 625.382812 629.542969 L 708.328125 629.542969 L 708.328125 683.308594 L 625.382812 683.308594 Z M 625.382812 629.542969 " clip-rule="nonzero"/></clipPath><clipPath id="a981d5e6dc"><path d="M 0.382812 0.542969 L 83.328125 0.542969 L 83.328125 54.308594 L 0.382812 54.308594 Z M 0.382812 0.542969 " clip-rule="nonzero"/></clipPath><clipPath id="5130a83251"><rect x="0" width="84" y="0" height="55"/></clipPath><clipPath id="7cbb7d1611"><rect x="0" width="868" y="0" height="240"/></clipPath><clipPath id="c0703e7ff3"><rect x="0" width="869" y="0" height="140"/></clipPath></defs><g clip-path="url(#d3b402cd6f)"><g clip-path="url(#130691832c)"><path stroke-linecap="butt" transform="matrix(0.75, 0, 0, 0.75, 403.269431, 221.009961)" fill="none" stroke-linejoin="miter" d="M 616.396021 99.997144 L 616.396021 516.393013 C 616.396021 542.913849 605.86477 568.351351 587.10956 587.101353 C 568.35435 605.856563 542.922056 616.393022 516.40122 616.393022 L 100.005351 616.393022 C 73.484516 616.393022 48.047013 605.856563 29.297012 587.101353 C 10.541802 568.351351 0.00534251 542.913849 0.00534251 516.393013 L 0.00534251 99.997144 C 0.00534251 73.476308 10.541802 48.044015 29.297012 29.288805 C 48.047013 10.533595 73.484516 0.00234372 100.005351 0.00234372 L 516.40122 0.00234372 C 542.922056 0.00234372 568.35435 10.533595 587.10956 29.288805 C 605.86477 48.044015 616.396021 73.476308 616.396021 99.997144 Z M 616.396021 99.997144 " stroke="#0f1b2e" stroke-width="144" stroke-opacity="1" stroke-miterlimit="4"/></g></g><g clip-path="url(#edc70ecb98)"><g clip-path="url(#04cbbf93d6)"><path stroke-linecap="butt" transform="matrix(0.75, 0, 0, 0.75, 634.423107, 452.159773)" fill="none" stroke-linejoin="miter" d="M 616.399452 99.995311 L 616.399452 516.39118 C 616.399452 542.912016 605.862993 568.349518 587.107783 587.104728 C 568.357782 605.85473 542.920279 616.391189 516.399444 616.391189 L 100.003575 616.391189 C 73.482739 616.391189 48.050445 605.85473 29.295235 587.104728 C 10.545234 568.349518 0.00877439 542.912016 0.00877439 516.39118 L 0.00877439 99.995311 C 0.00877439 73.474476 10.545234 48.042182 29.295235 29.286972 C 48.050445 10.53697 73.482739 0.000510928 100.003575 0.000510928 L 516.399444 0.000510928 C 542.920279 0.000510928 568.357782 10.53697 587.107783 29.286972 C 605.862993 48.042182 616.399452 73.474476 616.399452 99.995311 Z M 616.399452 99.995311 " stroke="#2e7d32" stroke-width="144" stroke-opacity="1" stroke-miterlimit="4"/></g></g><g clip-path="url(#88fbe51e97)"><g transform="matrix(1, 0, 0, 1, 625, 629)"><g clip-path="url(#5130a83251)"><g clip-path="url(#a981d5e6dc)"><path fill="#0f1b2e" d="M 83.328125 0.542969 L 83.328125 54.308594 L 0.367188 54.308594 L 0.367188 0.542969 Z M 83.328125 0.542969 " fill-opacity="1" fill-rule="nonzero"/></g></g></g></g><g transform="matrix(1, 0, 0, 1, 316, 927)"><g clip-path="url(#7cbb7d1611)"><g fill="#0f1b2e" fill-opacity="1"><g transform="translate(2.197399, 186.19645)"><g><path d="M 46.734375 -116.828125 L 0.796875 -116.828125 L 0.796875 -138.609375 L 118.40625 -138.609375 L 118.40625 -116.828125 L 72.46875 -116.828125 L 72.46875 0 L 46.734375 0 Z M 46.734375 -116.828125 "/></g></g></g><g fill="#0f1b2e" fill-opacity="1"><g transform="translate(121.398832, 186.19645)"><g><path d="M 122.578125 -21.578125 L 122.578125 0 L 18.609375 0 L 18.609375 -138.609375 L 119.796875 -138.609375 L 119.796875 -117.03125 L 44.359375 -117.03125 L 44.359375 -80.984375 L 111.28125 -80.984375 L 111.28125 -59.796875 L 44.359375 -59.796875 L 44.359375 -21.578125 Z M 122.578125 -21.578125 "/></g></g></g><g fill="#0f1b2e" fill-opacity="1"><g transform="translate(254.064885, 186.19645)"><g><path d="M 145.9375 0 L 145.734375 -91.875 L 100.203125 -15.84375 L 88.71875 -15.84375 L 43.171875 -90.6875 L 43.171875 0 L 18.609375 0 L 18.609375 -138.609375 L 39.796875 -138.609375 L 94.84375 -46.734375 L 148.90625 -138.609375 L 170.09375 -138.609375 L 170.296875 0 Z M 145.9375 0 "/></g></g></g><g fill="#0f1b2e" fill-opacity="1"><g transform="translate(443.163494, 186.19645)"><g><path d="M 75.640625 -138.609375 C 87.648438 -138.609375 98.109375 -136.628906 107.015625 -132.671875 C 115.929688 -128.710938 122.765625 -123.035156 127.515625 -115.640625 C 132.273438 -108.242188 134.65625 -99.46875 134.65625 -89.3125 C 134.65625 -79.269531 132.273438 -70.519531 127.515625 -63.0625 C 122.765625 -55.601562 115.929688 -49.894531 107.015625 -45.9375 C 98.109375 -41.976562 87.648438 -40 75.640625 -40 L 44.359375 -40 L 44.359375 0 L 18.609375 0 L 18.609375 -138.609375 Z M 74.453125 -61.78125 C 85.671875 -61.78125 94.179688 -64.15625 99.984375 -68.90625 C 105.796875 -73.65625 108.703125 -80.457031 108.703125 -89.3125 C 108.703125 -98.15625 105.796875 -104.953125 99.984375 -109.703125 C 94.179688 -114.453125 85.671875 -116.828125 74.453125 -116.828125 L 44.359375 -116.828125 L 44.359375 -61.78125 Z M 74.453125 -61.78125 "/></g></g></g><g fill="#0f1b2e" fill-opacity="1"><g transform="translate(584.937978, 186.19645)"><g><path d="M 78.21875 1.984375 C 59.070312 1.984375 44.148438 -3.394531 33.453125 -14.15625 C 22.765625 -24.914062 17.421875 -40.328125 17.421875 -60.390625 L 17.421875 -138.609375 L 43.171875 -138.609375 L 43.171875 -61.390625 C 43.171875 -34.191406 54.921875 -20.59375 78.421875 -20.59375 C 101.785156 -20.59375 113.46875 -34.191406 113.46875 -61.390625 L 113.46875 -138.609375 L 138.8125 -138.609375 L 138.8125 -60.390625 C 138.8125 -40.328125 133.492188 -24.914062 122.859375 -14.15625 C 112.234375 -3.394531 97.351562 1.984375 78.21875 1.984375 Z M 78.21875 1.984375 "/></g></g></g><g fill="#0f1b2e" fill-opacity="1"><g transform="translate(741.167079, 186.19645)"><g><path d="M 61.578125 1.984375 C 50.890625 1.984375 40.5625 0.464844 30.59375 -2.5625 C 20.625 -5.601562 12.738281 -9.632812 6.9375 -14.65625 L 15.84375 -34.65625 C 21.519531 -30.164062 28.484375 -26.5 36.734375 -23.65625 C 44.984375 -20.820312 53.265625 -19.40625 61.578125 -19.40625 C 71.878906 -19.40625 79.570312 -21.054688 84.65625 -24.359375 C 89.738281 -27.660156 92.28125 -32.015625 92.28125 -37.421875 C 92.28125 -41.378906 90.859375 -44.644531 88.015625 -47.21875 C 85.179688 -49.800781 81.582031 -51.816406 77.21875 -53.265625 C 72.863281 -54.710938 66.925781 -56.363281 59.40625 -58.21875 C 48.84375 -60.726562 40.289062 -63.234375 33.75 -65.734375 C 27.21875 -68.242188 21.609375 -72.171875 16.921875 -77.515625 C 12.242188 -82.867188 9.90625 -90.097656 9.90625 -99.203125 C 9.90625 -106.859375 11.984375 -113.820312 16.140625 -120.09375 C 20.296875 -126.363281 26.566406 -131.347656 34.953125 -135.046875 C 43.335938 -138.742188 53.597656 -140.59375 65.734375 -140.59375 C 74.191406 -140.59375 82.507812 -139.535156 90.6875 -137.421875 C 98.875 -135.304688 105.9375 -132.269531 111.875 -128.3125 L 103.765625 -108.3125 C 97.691406 -111.875 91.351562 -114.578125 84.75 -116.421875 C 78.144531 -118.273438 71.742188 -119.203125 65.546875 -119.203125 C 55.378906 -119.203125 47.816406 -117.484375 42.859375 -114.046875 C 37.910156 -110.617188 35.4375 -106.066406 35.4375 -100.390625 C 35.4375 -96.429688 36.851562 -93.195312 39.6875 -90.6875 C 42.53125 -88.175781 46.128906 -86.195312 50.484375 -84.75 C 54.847656 -83.300781 60.789062 -81.648438 68.3125 -79.796875 C 78.613281 -77.421875 87.0625 -74.945312 93.65625 -72.375 C 100.257812 -69.800781 105.90625 -65.875 110.59375 -60.59375 C 115.28125 -55.3125 117.625 -48.179688 117.625 -39.203125 C 117.625 -31.546875 115.539062 -24.613281 111.375 -18.40625 C 107.21875 -12.207031 100.914062 -7.257812 92.46875 -3.5625 C 84.019531 0.132812 73.722656 1.984375 61.578125 1.984375 Z M 61.578125 1.984375 "/></g></g></g></g></g><g transform="matrix(1, 0, 0, 1, 326, 1141)"><g clip-path="url(#c0703e7ff3)"><g fill="#2e7d32" fill-opacity="1"><g transform="translate(0.65707, 109.846462)"><g><path d="M 35.125 0.90625 C 29.132812 0.90625 23.351562 -0.0195312 17.78125 -1.875 C 12.21875 -3.726562 7.84375 -6.132812 4.65625 -9.09375 L 8.875 -17.96875 C 11.90625 -15.238281 15.785156 -13.019531 20.515625 -11.3125 C 25.253906 -9.601562 30.125 -8.75 35.125 -8.75 C 41.71875 -8.75 46.644531 -9.867188 49.90625 -12.109375 C 53.164062 -14.347656 54.796875 -17.320312 54.796875 -21.03125 C 54.796875 -23.757812 53.90625 -25.972656 52.125 -27.671875 C 50.34375 -29.378906 48.144531 -30.6875 45.53125 -31.59375 C 42.914062 -32.507812 39.222656 -33.535156 34.453125 -34.671875 C 28.460938 -36.109375 23.628906 -37.546875 19.953125 -38.984375 C 16.273438 -40.429688 13.128906 -42.648438 10.515625 -45.640625 C 7.898438 -48.640625 6.59375 -52.675781 6.59375 -57.75 C 6.59375 -62 7.707031 -65.828125 9.9375 -69.234375 C 12.175781 -72.648438 15.566406 -75.378906 20.109375 -77.421875 C 24.660156 -79.460938 30.3125 -80.484375 37.0625 -80.484375 C 41.757812 -80.484375 46.378906 -79.878906 50.921875 -78.671875 C 55.472656 -77.460938 59.378906 -75.71875 62.640625 -73.4375 L 58.890625 -64.34375 C 55.554688 -66.46875 51.992188 -68.078125 48.203125 -69.171875 C 44.410156 -70.273438 40.695312 -70.828125 37.0625 -70.828125 C 30.625 -70.828125 25.789062 -69.648438 22.5625 -67.296875 C 19.34375 -64.953125 17.734375 -61.921875 17.734375 -58.203125 C 17.734375 -55.472656 18.640625 -53.253906 20.453125 -51.546875 C 22.273438 -49.847656 24.53125 -48.523438 27.21875 -47.578125 C 29.914062 -46.628906 33.578125 -45.625 38.203125 -44.5625 C 44.191406 -43.125 49.003906 -41.679688 52.640625 -40.234375 C 56.273438 -38.796875 59.398438 -36.597656 62.015625 -33.640625 C 64.628906 -30.691406 65.9375 -26.71875 65.9375 -21.71875 C 65.9375 -17.550781 64.800781 -13.738281 62.53125 -10.28125 C 60.257812 -6.832031 56.8125 -4.101562 52.1875 -2.09375 C 47.5625 -0.09375 41.875 0.90625 35.125 0.90625 Z M 35.125 0.90625 "/></g></g></g><g fill="#2e7d32" fill-opacity="1"><g transform="translate(91.952074, 109.846462)"><g><path d="M 47.859375 0.90625 C 39.828125 0.90625 32.585938 -0.851562 26.140625 -4.375 C 19.703125 -7.894531 14.644531 -12.765625 10.96875 -18.984375 C 7.289062 -25.203125 5.453125 -32.140625 5.453125 -39.796875 C 5.453125 -47.441406 7.289062 -54.375 10.96875 -60.59375 C 14.644531 -66.8125 19.703125 -71.679688 26.140625 -75.203125 C 32.585938 -78.722656 39.828125 -80.484375 47.859375 -80.484375 C 55.816406 -80.484375 63.015625 -78.722656 69.453125 -75.203125 C 75.898438 -71.679688 80.941406 -66.832031 84.578125 -60.65625 C 88.222656 -54.476562 90.046875 -47.523438 90.046875 -39.796875 C 90.046875 -32.054688 88.222656 -25.097656 84.578125 -18.921875 C 80.941406 -12.742188 75.898438 -7.894531 69.453125 -4.375 C 63.015625 -0.851562 55.816406 0.90625 47.859375 0.90625 Z M 47.859375 -9.203125 C 53.691406 -9.203125 58.9375 -10.53125 63.59375 -13.1875 C 68.257812 -15.84375 71.9375 -19.5 74.625 -24.15625 C 77.320312 -28.820312 78.671875 -34.035156 78.671875 -39.796875 C 78.671875 -45.554688 77.320312 -50.765625 74.625 -55.421875 C 71.9375 -60.085938 68.257812 -63.742188 63.59375 -66.390625 C 58.9375 -69.046875 53.691406 -70.375 47.859375 -70.375 C 42.023438 -70.375 36.738281 -69.046875 32 -66.390625 C 27.257812 -63.742188 23.546875 -60.085938 20.859375 -55.421875 C 18.171875 -50.765625 16.828125 -45.554688 16.828125 -39.796875 C 16.828125 -34.035156 18.171875 -28.820312 20.859375 -24.15625 C 23.546875 -19.5 27.257812 -15.84375 32 -13.1875 C 36.738281 -10.53125 42.023438 -9.203125 47.859375 -9.203125 Z M 47.859375 -9.203125 "/></g></g></g><g fill="#2e7d32" fill-opacity="1"><g transform="translate(208.145414, 109.846462)"><g><path d="M 11.9375 -79.578125 L 23.3125 -79.578125 L 23.3125 -9.890625 L 66.390625 -9.890625 L 66.390625 0 L 11.9375 0 Z M 11.9375 -79.578125 "/></g></g></g><g fill="#2e7d32" fill-opacity="1"><g transform="translate(295.00642, 109.846462)"><g><path d="M 44.90625 0.90625 C 34.289062 0.90625 26.023438 -2.125 20.109375 -8.1875 C 14.203125 -14.25 11.25 -22.960938 11.25 -34.328125 L 11.25 -79.578125 L 22.625 -79.578125 L 22.625 -34.78125 C 22.625 -17.726562 30.085938 -9.203125 45.015625 -9.203125 C 52.296875 -9.203125 57.867188 -11.304688 61.734375 -15.515625 C 65.597656 -19.722656 67.53125 -26.144531 67.53125 -34.78125 L 67.53125 -79.578125 L 78.5625 -79.578125 L 78.5625 -34.328125 C 78.5625 -22.890625 75.601562 -14.15625 69.6875 -8.125 C 63.78125 -2.101562 55.519531 0.90625 44.90625 0.90625 Z M 44.90625 0.90625 "/></g></g></g><g fill="#2e7d32" fill-opacity="1"><g transform="translate(404.150903, 109.846462)"><g><path d="M 27.734375 -69.6875 L 0.453125 -69.6875 L 0.453125 -79.578125 L 66.28125 -79.578125 L 66.28125 -69.6875 L 39 -69.6875 L 39 0 L 27.734375 0 Z M 27.734375 -69.6875 "/></g></g></g><g fill="#2e7d32" fill-opacity="1"><g transform="translate(491.580394, 109.846462)"><g><path d="M 11.9375 -79.578125 L 23.3125 -79.578125 L 23.3125 0 L 11.9375 0 Z M 11.9375 -79.578125 "/></g></g></g><g fill="#2e7d32" fill-opacity="1"><g transform="translate(547.517492, 109.846462)"><g><path d="M 47.859375 0.90625 C 39.828125 0.90625 32.585938 -0.851562 26.140625 -4.375 C 19.703125 -7.894531 14.644531 -12.765625 10.96875 -18.984375 C 7.289062 -25.203125 5.453125 -32.140625 5.453125 -39.796875 C 5.453125 -47.441406 7.289062 -54.375 10.96875 -60.59375 C 14.644531 -66.8125 19.703125 -71.679688 26.140625 -75.203125 C 32.585938 -78.722656 39.828125 -80.484375 47.859375 -80.484375 C 55.816406 -80.484375 63.015625 -78.722656 69.453125 -75.203125 C 75.898438 -71.679688 80.941406 -66.832031 84.578125 -60.65625 C 88.222656 -54.476562 90.046875 -47.523438 90.046875 -39.796875 C 90.046875 -32.054688 88.222656 -25.097656 84.578125 -18.921875 C 80.941406 -12.742188 75.898438 -7.894531 69.453125 -4.375 C 63.015625 -0.851562 55.816406 0.90625 47.859375 0.90625 Z M 47.859375 -9.203125 C 53.691406 -9.203125 58.9375 -10.53125 63.59375 -13.1875 C 68.257812 -15.84375 71.9375 -19.5 74.625 -24.15625 C 77.320312 -28.820312 78.671875 -34.035156 78.671875 -39.796875 C 78.671875 -45.554688 77.320312 -50.765625 74.625 -55.421875 C 71.9375 -60.085938 68.257812 -63.742188 63.59375 -66.390625 C 58.9375 -69.046875 53.691406 -70.375 47.859375 -70.375 C 42.023438 -70.375 36.738281 -69.046875 32 -66.390625 C 27.257812 -63.742188 23.546875 -60.085938 20.859375 -55.421875 C 18.171875 -50.765625 16.828125 -45.554688 16.828125 -39.796875 C 16.828125 -34.035156 18.171875 -28.820312 20.859375 -24.15625 C 23.546875 -19.5 27.257812 -15.84375 32 -13.1875 C 36.738281 -10.53125 42.023438 -9.203125 47.859375 -9.203125 Z M 47.859375 -9.203125 "/></g></g></g><g fill="#2e7d32" fill-opacity="1"><g transform="translate(663.710812, 109.846462)"><g><path d="M 80.375 -79.578125 L 80.375 0 L 71.0625 0 L 23.3125 -59.34375 L 23.3125 0 L 11.9375 0 L 11.9375 -79.578125 L 21.265625 -79.578125 L 69.015625 -20.234375 L 69.015625 -79.578125 Z M 80.375 -79.578125 "/></g></g></g><g fill="#2e7d32" fill-opacity="1"><g transform="translate(776.720789, 109.846462)"><g><path d="M 35.125 0.90625 C 29.132812 0.90625 23.351562 -0.0195312 17.78125 -1.875 C 12.21875 -3.726562 7.84375 -6.132812 4.65625 -9.09375 L 8.875 -17.96875 C 11.90625 -15.238281 15.785156 -13.019531 20.515625 -11.3125 C 25.253906 -9.601562 30.125 -8.75 35.125 -8.75 C 41.71875 -8.75 46.644531 -9.867188 49.90625 -12.109375 C 53.164062 -14.347656 54.796875 -17.320312 54.796875 -21.03125 C 54.796875 -23.757812 53.90625 -25.972656 52.125 -27.671875 C 50.34375 -29.378906 48.144531 -30.6875 45.53125 -31.59375 C 42.914062 -32.507812 39.222656 -33.535156 34.453125 -34.671875 C 28.460938 -36.109375 23.628906 -37.546875 19.953125 -38.984375 C 16.273438 -40.429688 13.128906 -42.648438 10.515625 -45.640625 C 7.898438 -48.640625 6.59375 -52.675781 6.59375 -57.75 C 6.59375 -62 7.707031 -65.828125 9.9375 -69.234375 C 12.175781 -72.648438 15.566406 -75.378906 20.109375 -77.421875 C 24.660156 -79.460938 30.3125 -80.484375 37.0625 -80.484375 C 41.757812 -80.484375 46.378906 -79.878906 50.921875 -78.671875 C 55.472656 -77.460938 59.378906 -75.71875 62.640625 -73.4375 L 58.890625 -64.34375 C 55.554688 -66.46875 51.992188 -68.078125 48.203125 -69.171875 C 44.410156 -70.273438 40.695312 -70.828125 37.0625 -70.828125 C 30.625 -70.828125 25.789062 -69.648438 22.5625 -67.296875 C 19.34375 -64.953125 17.734375 -61.921875 17.734375 -58.203125 C 17.734375 -55.472656 18.640625 -53.253906 20.453125 -51.546875 C 22.273438 -49.847656 24.53125 -48.523438 27.21875 -47.578125 C 29.914062 -46.628906 33.578125 -45.625 38.203125 -44.5625 C 44.191406 -43.125 49.003906 -41.679688 52.640625 -40.234375 C 56.273438 -38.796875 59.398438 -36.597656 62.015625 -33.640625 C 64.628906 -30.691406 65.9375 -26.71875 65.9375 -21.71875 C 65.9375 -17.550781 64.800781 -13.738281 62.53125 -10.28125 C 60.257812 -6.832031 56.8125 -4.101562 52.1875 -2.09375 C 47.5625 -0.09375 41.875 0.90625 35.125 0.90625 Z M 35.125 0.90625 "/></g></g></g></g></g></svg>