<svg xmlns="http://www.w3.org/2000/svg" xmlns:xlink="http://www.w3.org/1999/xlink" width="2000" zoomAndPan="magnify" viewBox="0 0 1500 1499.999933" height="2000" preserveAspectRatio="xMidYMid meet" version="1.0"><defs><g/><clipPath id="7664203fd8"><path d="M 77.871094 186.453125 L 325.382812 186.453125 L 325.382812 402.984375 L 77.871094 402.984375 Z M 77.871094 186.453125 " clip-rule="nonzero"/></clipPath><clipPath id="3cf1f9a08f"><path d="M 201.570312 186.316406 L 77.761719 402.984375 L 325.382812 402.984375 Z M 201.570312 186.316406 " clip-rule="nonzero"/></clipPath><clipPath id="9a2336e719"><path d="M 77.960938 77.976562 L 325.472656 77.976562 L 325.472656 294.511719 L 77.960938 294.511719 Z M 77.960938 77.976562 " clip-rule="nonzero"/></clipPath><clipPath id="f3e33dc0a5"><path d="M 201.769531 294.648438 L 325.582031 77.976562 L 77.960938 77.976562 Z M 201.769531 294.648438 " clip-rule="nonzero"/></clipPath><clipPath id="d41695cea5"><rect x="0" width="404" y="0" height="481"/></clipPath><clipPath id="2d8d03aebd"><path d="M 0.679688 0.078125 L 760.039062 0.078125 L 760.039062 202 L 0.679688 202 Z M 0.679688 0.078125 " clip-rule="nonzero"/></clipPath><clipPath id="63263ff6e4"><rect x="0" width="761" y="0" height="202"/></clipPath><clipPath id="af69f385f2"><rect x="0" width="761" y="0" height="255"/></clipPath></defs><g transform="matrix(1, 0, 0, 1, 81, 531)"><g clip-path="url(#d41695cea5)"><g clip-path="url(#7664203fd8)"><g clip-path="url(#3cf1f9a08f)"><path stroke-linecap="butt" transform="matrix(-0.352085, 0, 0, -0.352085, 325.384774, 402.984449)" fill="none" stroke-linejoin="miter" d="M 351.660961 615.386047 L 703.305256 0.000210611 L 0.00557209 0.000210611 Z M 351.660961 615.386047 " stroke="#000000" stroke-width="106.508438" stroke-opacity="1" stroke-miterlimit="4"/></g></g><g clip-path="url(#9a2336e719)"><g clip-path="url(#f3e33dc0a5)"><path stroke-linecap="butt" transform="matrix(0.352085, 0, 0, 0.352085, 77.95836, 77.978248)" fill="none" stroke-linejoin="miter" d="M 351.651614 615.392143 L 703.307003 -0.00478818 L 0.00731938 -0.00478818 Z M 351.651614 615.392143 " stroke="#000000" stroke-width="106.508438" stroke-opacity="1" stroke-miterlimit="4"/></g></g></g></g><g transform="matrix(1, 0, 0, 1, 529, 652)"><g clip-path="url(#af69f385f2)"><g clip-path="url(#2d8d03aebd)"><g transform="matrix(1, 0, 0, 1, 0, 0.000000000000113687)"><g clip-path="url(#63263ff6e4)"><g fill="#000000" fill-opacity="1"><g transform="translate(1.079755, 145.404542)"><g><path d="M 88.078125 -91.375 C 88.078125 -93.769531 87.226562 -95.835938 85.53125 -97.578125 C 83.84375 -99.328125 81.851562 -100.25 79.5625 -100.34375 L 51.140625 -100.34375 L 51.140625 -10.765625 C 51.242188 -8.171875 52.21875 -5.976562 54.0625 -4.1875 C 55.90625 -2.394531 58.125 -1.5 60.71875 -1.5 L 62.65625 -1.5 L 62.65625 0 L 29.90625 0 L 29.90625 -1.5 L 31.859375 -1.5 C 34.441406 -1.5 36.65625 -2.394531 38.5 -4.1875 C 40.351562 -5.976562 41.328125 -8.125 41.421875 -10.625 L 41.421875 -100.34375 L 13.015625 -100.34375 C 10.617188 -100.25 8.597656 -99.328125 6.953125 -97.578125 C 5.304688 -95.835938 4.484375 -93.769531 4.484375 -91.375 L 4.484375 -88.828125 L 2.984375 -88.6875 L 2.984375 -107.53125 C 4.484375 -106.925781 7.078125 -106.320312 10.765625 -105.71875 C 14.453125 -105.125 17.84375 -104.828125 20.9375 -104.828125 L 71.484375 -104.828125 C 76.367188 -104.828125 80.429688 -105.203125 83.671875 -105.953125 C 86.910156 -106.703125 88.878906 -107.226562 89.578125 -107.53125 L 89.578125 -88.6875 L 88.078125 -88.828125 Z M 88.078125 -91.375 "/></g></g></g><g fill="#000000" fill-opacity="1"><g transform="translate(121.162483, 145.404542)"><g><path d="M 10.921875 -1.5 C 13.515625 -1.5 15.734375 -2.421875 17.578125 -4.265625 C 19.421875 -6.109375 20.390625 -8.328125 20.484375 -10.921875 L 20.484375 -94.65625 C 20.191406 -97.050781 19.144531 -99.070312 17.34375 -100.71875 C 15.550781 -102.363281 13.410156 -103.1875 10.921875 -103.1875 L 9.125 -103.1875 L 8.96875 -104.6875 L 52.796875 -104.6875 C 55.878906 -104.6875 59.238281 -104.984375 62.875 -105.578125 C 66.519531 -106.179688 69.09375 -106.78125 70.59375 -107.375 L 70.59375 -88.53125 L 69.09375 -88.53125 L 69.09375 -91.21875 C 69.09375 -93.613281 68.269531 -95.65625 66.625 -97.34375 C 64.976562 -99.039062 63.007812 -99.941406 60.71875 -100.046875 L 30.203125 -100.046875 L 30.203125 -53.84375 L 55.484375 -53.84375 C 57.472656 -53.9375 59.164062 -54.679688 60.5625 -56.078125 C 61.957031 -57.472656 62.65625 -59.21875 62.65625 -61.3125 L 62.65625 -63.40625 L 64.15625 -63.40625 L 64.15625 -39.78125 L 62.65625 -39.78125 L 62.65625 -42.015625 C 62.65625 -44.015625 61.984375 -45.710938 60.640625 -47.109375 C 59.296875 -48.503906 57.625 -49.25 55.625 -49.34375 L 30.203125 -49.34375 L 30.203125 -4.640625 L 51.59375 -4.640625 C 58.96875 -4.640625 64.597656 -6.28125 68.484375 -9.5625 C 72.378906 -12.851562 75.625 -17.742188 78.21875 -24.234375 L 79.703125 -24.234375 L 71.03125 0 L 8.96875 0 L 8.96875 -1.5 Z M 10.921875 -1.5 "/></g></g></g><g fill="#000000" fill-opacity="1"><g transform="translate(235.114061, 145.404542)"><g><path d="M 134.59375 -1.5 L 136.984375 -1.5 L 136.984375 0 L 104.53125 0 L 104.53125 -1.34375 L 106.78125 -1.34375 C 108.46875 -1.34375 109.910156 -2.015625 111.109375 -3.359375 C 112.304688 -4.710938 112.804688 -6.1875 112.609375 -7.78125 L 105.875 -83 L 74.46875 -13.15625 C 71.675781 -7.070312 69.984375 -1.988281 69.390625 2.09375 L 67.890625 2.09375 L 29.609375 -80.90625 L 23.1875 -7.78125 C 22.976562 -6.1875 23.472656 -4.710938 24.671875 -3.359375 C 25.867188 -2.015625 27.265625 -1.34375 28.859375 -1.34375 L 31.25 -1.34375 L 31.25 0 L 2.25 0 L 2.25 -1.5 L 4.640625 -1.5 C 7.429688 -1.5 9.847656 -2.34375 11.890625 -4.03125 C 13.929688 -5.726562 15.148438 -8.023438 15.546875 -10.921875 L 26.765625 -106.78125 L 28.265625 -106.78125 L 69.984375 -16.59375 L 110.8125 -106.78125 L 112.15625 -106.78125 L 123.671875 -10.921875 C 124.171875 -6.929688 126.164062 -4.140625 129.65625 -2.546875 C 131.15625 -1.847656 132.800781 -1.5 134.59375 -1.5 Z M 134.59375 -1.5 "/></g></g></g><g fill="#000000" fill-opacity="1"><g transform="translate(402.002941, 145.404542)"><g><path d="M 78.8125 -75.8125 C 78.8125 -71.425781 77.914062 -67.34375 76.125 -63.5625 C 72.832031 -56.476562 67.046875 -51.539062 58.765625 -48.75 C 55.878906 -47.75 53.390625 -47.25 51.296875 -47.25 C 45.109375 -47.25 39.773438 -48.398438 35.296875 -50.703125 L 35.296875 -52.1875 C 42.566406 -50.59375 49.296875 -51.390625 55.484375 -54.578125 C 60.960938 -57.367188 64.703125 -61.957031 66.703125 -68.34375 C 67.296875 -70.332031 67.59375 -72.222656 67.59375 -74.015625 C 67.59375 -75.816406 67.59375 -76.914062 67.59375 -77.3125 C 67.394531 -84.289062 65.550781 -89.847656 62.0625 -93.984375 C 58.570312 -98.128906 53.6875 -100.203125 47.40625 -100.203125 L 30.203125 -100.203125 L 30.203125 -10.921875 C 30.304688 -8.328125 31.28125 -6.109375 33.125 -4.265625 C 34.96875 -2.421875 37.1875 -1.5 39.78125 -1.5 L 41.71875 -1.5 L 41.71875 0 L 8.96875 0 L 8.96875 -1.5 L 10.921875 -1.5 C 13.515625 -1.5 15.734375 -2.421875 17.578125 -4.265625 C 19.421875 -6.109375 20.390625 -8.328125 20.484375 -10.921875 L 20.484375 -94.515625 C 20.191406 -97.003906 19.144531 -99.070312 17.34375 -100.71875 C 15.550781 -102.363281 13.410156 -103.1875 10.921875 -103.1875 L 9.125 -103.1875 L 8.96875 -104.6875 L 48 -104.6875 C 57.570312 -104.6875 65.097656 -102.117188 70.578125 -96.984375 C 76.066406 -91.847656 78.8125 -84.789062 78.8125 -75.8125 Z M 78.8125 -75.8125 "/></g></g></g><g fill="#000000" fill-opacity="1"><g transform="translate(515.954505, 145.404542)"><g><path d="M 109.921875 -103.1875 L 107.53125 -103.1875 C 105.4375 -103.1875 103.613281 -102.515625 102.0625 -101.171875 C 100.519531 -99.828125 99.695312 -98.15625 99.59375 -96.15625 L 99.59375 -36.9375 C 99.59375 -25.269531 95.90625 -15.847656 88.53125 -8.671875 C 81.15625 -1.492188 71.332031 2.09375 59.0625 2.09375 C 46.800781 2.09375 36.859375 -1.46875 29.234375 -8.59375 C 21.609375 -15.726562 17.796875 -25.125 17.796875 -36.78125 L 17.796875 -95.703125 C 17.796875 -98.703125 16.5 -100.898438 13.90625 -102.296875 C 12.707031 -102.890625 11.363281 -103.1875 9.875 -103.1875 L 7.484375 -103.1875 L 7.484375 -104.6875 L 37.828125 -104.6875 L 37.828125 -103.1875 L 35.4375 -103.1875 C 33.25 -103.1875 31.40625 -102.515625 29.90625 -101.171875 C 28.414062 -99.828125 27.617188 -98.109375 27.515625 -96.015625 L 27.515625 -38.875 C 27.515625 -28.007812 30.429688 -19.238281 36.265625 -12.5625 C 42.097656 -5.882812 49.898438 -2.546875 59.671875 -2.546875 C 69.441406 -2.546875 77.363281 -5.707031 83.4375 -12.03125 C 89.519531 -18.363281 92.5625 -26.664062 92.5625 -36.9375 L 92.5625 -96.015625 C 92.46875 -98.109375 91.671875 -99.828125 90.171875 -101.171875 C 88.679688 -102.515625 86.835938 -103.1875 84.640625 -103.1875 L 82.25 -103.1875 L 82.25 -104.6875 L 109.921875 -104.6875 Z M 109.921875 -103.1875 "/></g></g></g><g fill="#000000" fill-opacity="1"><g transform="translate(661.010499, 145.404542)"><g><path d="M 9.125 -6.125 C 8.820312 -7.519531 8.671875 -10.210938 8.671875 -14.203125 C 8.671875 -18.191406 9.421875 -22.429688 10.921875 -26.921875 L 12.265625 -26.921875 C 12.160156 -25.816406 12.109375 -24.71875 12.109375 -23.625 C 12.109375 -17.539062 13.953125 -12.476562 17.640625 -8.4375 C 21.335938 -4.40625 26.222656 -2.390625 32.296875 -2.390625 C 38.578125 -2.390625 43.738281 -4.285156 47.78125 -8.078125 C 51.820312 -11.867188 53.84375 -16.628906 53.84375 -22.359375 C 53.84375 -28.085938 51.894531 -32.75 48 -36.34375 L 19.296875 -62.953125 C 13.910156 -67.941406 11.21875 -73.972656 11.21875 -81.046875 C 11.21875 -88.128906 13.582031 -94.1875 18.3125 -99.21875 C 23.050781 -104.257812 29.457031 -106.78125 37.53125 -106.78125 C 41.320312 -106.78125 45.609375 -106.28125 50.390625 -105.28125 L 56.234375 -105.28125 L 56.234375 -86.890625 L 54.890625 -86.890625 C 54.890625 -91.578125 53.265625 -95.316406 50.015625 -98.109375 C 46.773438 -100.898438 42.613281 -102.296875 37.53125 -102.296875 C 32.445312 -102.296875 28.1875 -100.597656 24.75 -97.203125 C 21.3125 -93.816406 19.59375 -89.578125 19.59375 -84.484375 C 19.59375 -79.398438 21.585938 -75.015625 25.578125 -71.328125 L 55.03125 -44.109375 C 60.019531 -39.523438 62.515625 -33.242188 62.515625 -25.265625 C 62.515625 -17.296875 59.96875 -10.742188 54.875 -5.609375 C 49.789062 -0.472656 43.015625 2.09375 34.546875 2.09375 C 30.160156 2.09375 25.5 1.421875 20.5625 0.078125 C 15.625 -1.265625 11.8125 -3.332031 9.125 -6.125 Z M 9.125 -6.125 "/></g></g></g></g></g></g><g fill="#000000" fill-opacity="1"><g transform="translate(34.017137, 237.678773)"><g><path d="M 20.1875 0.390625 C 16.769531 0.390625 13.492188 -0.15625 10.359375 -1.25 C 7.222656 -2.34375 4.800781 -3.789062 3.09375 -5.59375 L 5 -9.34375 C 6.664062 -7.675781 8.878906 -6.328125 11.640625 -5.296875 C 14.398438 -4.265625 17.25 -3.75 20.1875 -3.75 C 24.3125 -3.75 27.40625 -4.503906 29.46875 -6.015625 C 31.53125 -7.523438 32.5625 -9.488281 32.5625 -11.90625 C 32.5625 -13.75 32 -15.21875 30.875 -16.3125 C 29.757812 -17.40625 28.390625 -18.25 26.765625 -18.84375 C 25.148438 -19.4375 22.894531 -20.082031 20 -20.78125 C 16.53125 -21.664062 13.765625 -22.507812 11.703125 -23.3125 C 9.648438 -24.125 7.882812 -25.363281 6.40625 -27.03125 C 4.9375 -28.695312 4.203125 -30.957031 4.203125 -33.8125 C 4.203125 -36.132812 4.816406 -38.25 6.046875 -40.15625 C 7.273438 -42.0625 9.160156 -43.582031 11.703125 -44.71875 C 14.253906 -45.863281 17.414062 -46.4375 21.1875 -46.4375 C 23.8125 -46.4375 26.382812 -46.070312 28.90625 -45.34375 C 31.425781 -44.625 33.609375 -43.628906 35.453125 -42.359375 L 33.8125 -38.484375 C 31.882812 -39.753906 29.820312 -40.707031 27.625 -41.34375 C 25.4375 -41.976562 23.289062 -42.296875 21.1875 -42.296875 C 17.144531 -42.296875 14.101562 -41.515625 12.0625 -39.953125 C 10.03125 -38.398438 9.015625 -36.394531 9.015625 -33.9375 C 9.015625 -32.101562 9.570312 -30.625 10.6875 -29.5 C 11.800781 -28.382812 13.203125 -27.53125 14.890625 -26.9375 C 16.585938 -26.34375 18.859375 -25.695312 21.703125 -25 C 25.078125 -24.164062 27.804688 -23.34375 29.890625 -22.53125 C 31.972656 -21.71875 33.738281 -20.488281 35.1875 -18.84375 C 36.632812 -17.195312 37.359375 -14.972656 37.359375 -12.171875 C 37.359375 -9.847656 36.734375 -7.726562 35.484375 -5.8125 C 34.234375 -3.90625 32.316406 -2.394531 29.734375 -1.28125 C 27.148438 -0.164062 23.96875 0.390625 20.1875 0.390625 Z M 20.1875 0.390625 "/></g></g></g><g fill="#000000" fill-opacity="1"><g transform="translate(108.676633, 237.678773)"><g><path d="M 27.625 0.390625 C 23.0625 0.390625 18.925781 -0.625 15.21875 -2.65625 C 11.519531 -4.695312 8.628906 -7.492188 6.546875 -11.046875 C 4.460938 -14.597656 3.421875 -18.59375 3.421875 -23.03125 C 3.421875 -27.457031 4.460938 -31.445312 6.546875 -35 C 8.628906 -38.550781 11.519531 -41.34375 15.21875 -43.375 C 18.925781 -45.414062 23.0625 -46.4375 27.625 -46.4375 C 32.1875 -46.4375 36.296875 -45.425781 39.953125 -43.40625 C 43.617188 -41.394531 46.503906 -38.601562 48.609375 -35.03125 C 50.710938 -31.457031 51.765625 -27.457031 51.765625 -23.03125 C 51.765625 -18.59375 50.710938 -14.585938 48.609375 -11.015625 C 46.503906 -7.441406 43.617188 -4.644531 39.953125 -2.625 C 36.296875 -0.613281 32.1875 0.390625 27.625 0.390625 Z M 27.625 -3.953125 C 31.269531 -3.953125 34.5625 -4.769531 37.5 -6.40625 C 40.4375 -8.050781 42.738281 -10.332031 44.40625 -13.25 C 46.070312 -16.164062 46.90625 -19.425781 46.90625 -23.03125 C 46.90625 -26.625 46.070312 -29.878906 44.40625 -32.796875 C 42.738281 -35.710938 40.4375 -37.988281 37.5 -39.625 C 34.5625 -41.269531 31.269531 -42.09375 27.625 -42.09375 C 23.988281 -42.09375 20.6875 -41.269531 17.71875 -39.625 C 14.757812 -37.988281 12.4375 -35.710938 10.75 -32.796875 C 9.0625 -29.878906 8.21875 -26.625 8.21875 -23.03125 C 8.21875 -19.425781 9.0625 -16.164062 10.75 -13.25 C 12.4375 -10.332031 14.757812 -8.050781 17.71875 -6.40625 C 20.6875 -4.769531 23.988281 -3.953125 27.625 -3.953125 Z M 27.625 -3.953125 "/></g></g></g><g fill="#000000" fill-opacity="1"><g transform="translate(198.069236, 237.678773)"><g><path d="M 7.5 -46.046875 L 12.359375 -46.046875 L 12.359375 -4.203125 L 38.15625 -4.203125 L 38.15625 0 L 7.5 0 Z M 7.5 -46.046875 "/></g></g></g><g fill="#000000" fill-opacity="1"><g transform="translate(270.163484, 237.678773)"><g><path d="M 26.046875 0.390625 C 20.085938 0.390625 15.441406 -1.316406 12.109375 -4.734375 C 8.773438 -8.160156 7.109375 -13.140625 7.109375 -19.671875 L 7.109375 -46.046875 L 11.96875 -46.046875 L 11.96875 -19.859375 C 11.96875 -14.515625 13.171875 -10.523438 15.578125 -7.890625 C 17.992188 -5.265625 21.484375 -3.953125 26.046875 -3.953125 C 30.648438 -3.953125 34.15625 -5.265625 36.5625 -7.890625 C 38.976562 -10.523438 40.1875 -14.515625 40.1875 -19.859375 L 40.1875 -46.046875 L 44.921875 -46.046875 L 44.921875 -19.671875 C 44.921875 -13.140625 43.265625 -8.160156 39.953125 -4.734375 C 36.648438 -1.316406 32.015625 0.390625 26.046875 0.390625 Z M 26.046875 0.390625 "/></g></g></g><g fill="#000000" fill-opacity="1"><g transform="translate(355.543817, 237.678773)"><g><path d="M 16.453125 -41.84375 L 0.265625 -41.84375 L 0.265625 -46.046875 L 37.5 -46.046875 L 37.5 -41.84375 L 21.3125 -41.84375 L 21.3125 0 L 16.453125 0 Z M 16.453125 -41.84375 "/></g></g></g><g fill="#000000" fill-opacity="1"><g transform="translate(427.506615, 237.678773)"><g><path d="M 7.5 -46.046875 L 12.359375 -46.046875 L 12.359375 0 L 7.5 0 Z M 7.5 -46.046875 "/></g></g></g><g fill="#000000" fill-opacity="1"><g transform="translate(481.579259, 237.678773)"><g><path d="M 27.625 0.390625 C 23.0625 0.390625 18.925781 -0.625 15.21875 -2.65625 C 11.519531 -4.695312 8.628906 -7.492188 6.546875 -11.046875 C 4.460938 -14.597656 3.421875 -18.59375 3.421875 -23.03125 C 3.421875 -27.457031 4.460938 -31.445312 6.546875 -35 C 8.628906 -38.550781 11.519531 -41.34375 15.21875 -43.375 C 18.925781 -45.414062 23.0625 -46.4375 27.625 -46.4375 C 32.1875 -46.4375 36.296875 -45.425781 39.953125 -43.40625 C 43.617188 -41.394531 46.503906 -38.601562 48.609375 -35.03125 C 50.710938 -31.457031 51.765625 -27.457031 51.765625 -23.03125 C 51.765625 -18.59375 50.710938 -14.585938 48.609375 -11.015625 C 46.503906 -7.441406 43.617188 -4.644531 39.953125 -2.625 C 36.296875 -0.613281 32.1875 0.390625 27.625 0.390625 Z M 27.625 -3.953125 C 31.269531 -3.953125 34.5625 -4.769531 37.5 -6.40625 C 40.4375 -8.050781 42.738281 -10.332031 44.40625 -13.25 C 46.070312 -16.164062 46.90625 -19.425781 46.90625 -23.03125 C 46.90625 -26.625 46.070312 -29.878906 44.40625 -32.796875 C 42.738281 -35.710938 40.4375 -37.988281 37.5 -39.625 C 34.5625 -41.269531 31.269531 -42.09375 27.625 -42.09375 C 23.988281 -42.09375 20.6875 -41.269531 17.71875 -39.625 C 14.757812 -37.988281 12.4375 -35.710938 10.75 -32.796875 C 9.0625 -29.878906 8.21875 -26.625 8.21875 -23.03125 C 8.21875 -19.425781 9.0625 -16.164062 10.75 -13.25 C 12.4375 -10.332031 14.757812 -8.050781 17.71875 -6.40625 C 20.6875 -4.769531 23.988281 -3.953125 27.625 -3.953125 Z M 27.625 -3.953125 "/></g></g></g><g fill="#000000" fill-opacity="1"><g transform="translate(570.971825, 237.678773)"><g><path d="M 45.984375 -46.046875 L 45.984375 0 L 41.96875 0 L 12.359375 -37.359375 L 12.359375 0 L 7.5 0 L 7.5 -46.046875 L 11.515625 -46.046875 L 41.171875 -8.6875 L 41.171875 -46.046875 Z M 45.984375 -46.046875 "/></g></g></g><g fill="#000000" fill-opacity="1"><g transform="translate(658.654369, 237.678773)"><g><path d="M 20.1875 0.390625 C 16.769531 0.390625 13.492188 -0.15625 10.359375 -1.25 C 7.222656 -2.34375 4.800781 -3.789062 3.09375 -5.59375 L 5 -9.34375 C 6.664062 -7.675781 8.878906 -6.328125 11.640625 -5.296875 C 14.398438 -4.265625 17.25 -3.75 20.1875 -3.75 C 24.3125 -3.75 27.40625 -4.503906 29.46875 -6.015625 C 31.53125 -7.523438 32.5625 -9.488281 32.5625 -11.90625 C 32.5625 -13.75 32 -15.21875 30.875 -16.3125 C 29.757812 -17.40625 28.390625 -18.25 26.765625 -18.84375 C 25.148438 -19.4375 22.894531 -20.082031 20 -20.78125 C 16.53125 -21.664062 13.765625 -22.507812 11.703125 -23.3125 C 9.648438 -24.125 7.882812 -25.363281 6.40625 -27.03125 C 4.9375 -28.695312 4.203125 -30.957031 4.203125 -33.8125 C 4.203125 -36.132812 4.816406 -38.25 6.046875 -40.15625 C 7.273438 -42.0625 9.160156 -43.582031 11.703125 -44.71875 C 14.253906 -45.863281 17.414062 -46.4375 21.1875 -46.4375 C 23.8125 -46.4375 26.382812 -46.070312 28.90625 -45.34375 C 31.425781 -44.625 33.609375 -43.628906 35.453125 -42.359375 L 33.8125 -38.484375 C 31.882812 -39.753906 29.820312 -40.707031 27.625 -41.34375 C 25.4375 -41.976562 23.289062 -42.296875 21.1875 -42.296875 C 17.144531 -42.296875 14.101562 -41.515625 12.0625 -39.953125 C 10.03125 -38.398438 9.015625 -36.394531 9.015625 -33.9375 C 9.015625 -32.101562 9.570312 -30.625 10.6875 -29.5 C 11.800781 -28.382812 13.203125 -27.53125 14.890625 -26.9375 C 16.585938 -26.34375 18.859375 -25.695312 21.703125 -25 C 25.078125 -24.164062 27.804688 -23.34375 29.890625 -22.53125 C 31.972656 -21.71875 33.738281 -20.488281 35.1875 -18.84375 C 36.632812 -17.195312 37.359375 -14.972656 37.359375 -12.171875 C 37.359375 -9.847656 36.734375 -7.726562 35.484375 -5.8125 C 34.234375 -3.90625 32.316406 -2.394531 29.734375 -1.28125 C 27.148438 -0.164062 23.96875 0.390625 20.1875 0.390625 Z M 20.1875 0.390625 "/></g></g></g></g></g><path stroke-linecap="butt" transform="matrix(0, 0.75, -0.75, 0, 481.892416, 621.524038)" fill="none" stroke-linejoin="miter" d="M -0.000801288 2.002388 L 399.905483 2.002388 " stroke="#000000" stroke-width="4" stroke-opacity="1" stroke-miterlimit="4"/></svg>